<svg xmlns="http://www.w3.org/2000/svg" viewBox="0 0 500 500"><g id="freepik--background-complete--inject-12"><path d="M57.87,92.47A3.54,3.54,0,0,0,54,92.24a6.84,6.84,0,0,0-9-2.88,8,8,0,0,0-7.64-6,8,8,0,0,0-7.49,6.14,3,3,0,0,1-.58,1.53c-.63.65-1.68.43-2.58.36a6.4,6.4,0,0,0-6.44,4.49l38.91-.14A3.09,3.09,0,0,0,57.87,92.47Z" style="fill:#f0f0f0"></path><path d="M289.62,51a3.56,3.56,0,0,0-3.85-.23,6.83,6.83,0,0,0-9-2.88,7.76,7.76,0,0,0-15.14.18,3,3,0,0,1-.58,1.54c-.63.64-1.68.42-2.58.35a6.38,6.38,0,0,0-6.43,4.49L291,54.3A3.1,3.1,0,0,0,289.62,51Z" style="fill:#f0f0f0"></path><path d="M201.28,36.76a5.3,5.3,0,0,0-5.73-.34,10.23,10.23,0,0,0-13.44-4.3,11.58,11.58,0,0,0-22.59.28,4.42,4.42,0,0,1-.87,2.28c-.94,1-2.51.64-3.85.54a9.54,9.54,0,0,0-9.61,6.7l58.08-.21A4.61,4.61,0,0,0,201.28,36.76Z" style="fill:#e6e6e6"></path><path d="M385.35,91.08a5.33,5.33,0,0,0-5.74-.34,10.23,10.23,0,0,0-13.44-4.3,11.58,11.58,0,0,0-22.59.28,4.46,4.46,0,0,1-.86,2.28c-.94,1-2.52.64-3.86.54a9.52,9.52,0,0,0-9.6,6.7L387.33,96A4.62,4.62,0,0,0,385.35,91.08Z" style="fill:#e6e6e6"></path><path d="M443.92,339.06H263.17a5.87,5.87,0,0,1-5.86-5.86V69.93a5.87,5.87,0,0,1,5.86-5.87H443.92a5.87,5.87,0,0,1,5.86,5.87V333.2A5.87,5.87,0,0,1,443.92,339.06ZM263.17,64.31a5.62,5.62,0,0,0-5.61,5.62V333.2a5.62,5.62,0,0,0,5.61,5.61H443.92a5.61,5.61,0,0,0,5.61-5.61V69.93a5.62,5.62,0,0,0-5.61-5.62Z" style="fill:#e0e0e0"></path><path d="M235.49,339.06H54.75a5.87,5.87,0,0,1-5.87-5.86V69.93a5.87,5.87,0,0,1,5.87-5.87H235.49a5.86,5.86,0,0,1,5.86,5.87V333.2A5.86,5.86,0,0,1,235.49,339.06ZM54.75,64.31a5.62,5.62,0,0,0-5.62,5.62V333.2a5.62,5.62,0,0,0,5.62,5.61H235.49a5.61,5.61,0,0,0,5.61-5.61V69.93a5.62,5.62,0,0,0-5.61-5.62Z" style="fill:#e0e0e0"></path><rect y="400.13" width="500" height="0.25" style="fill:#e0e0e0"></rect><rect x="51.67" y="414.4" width="16.06" height="0.25" style="fill:#e0e0e0"></rect><rect x="170.35" y="411.69" width="53.53" height="0.25" style="fill:#e0e0e0"></rect><rect x="68.73" y="423.69" width="36.25" height="0.25" style="fill:#e0e0e0"></rect><rect x="378.35" y="411.56" width="43.19" height="0.25" style="fill:#e0e0e0"></rect><rect x="430.45" y="411.56" width="6.33" height="0.25" style="fill:#e0e0e0"></rect><rect x="316.21" y="417.79" width="53.89" height="0.25" style="fill:#e0e0e0"></rect><path d="M100,265.26l-18,2.57s-.11,50.37-.75,56.58S72,336.81,72,336.81h33.79C97.05,321.82,100,265.26,100,265.26Z" style="fill:#f0f0f0"></path><path d="M152.73,253.34l2.13-12.53c.22-1.27.42-2.66-.69-3.66a2.45,2.45,0,0,0-1.22-.59c-2.74-.46-4.75,2.85-7.39,2.82-1.58-2.37.17-5.75,2-7.83s4.24-4.83,3.34-7.84a4.36,4.36,0,0,0-2.94-2.94c-2.3-.68-4.51.28-6.63,1.23-1.37-3.81,2.85-6.8,5.33-10.1,1.52-2,0-5.13-2.24-4.71l-8.52,1.61a4.21,4.21,0,0,1-2.48-.22c-3.16-1.35-2.51-5.64-1.06-8.42.57-1.09,1.24-2.16,1.79-3.28,1-2-.17-4.57-2.16-4.66a21.43,21.43,0,0,0-5.53.45c-1.81-3.57,1.58-7.63,4.68-9.67a20.62,20.62,0,0,0,4.28-3.52c1.83-2.11.8-5.75-1.75-6.21l-6.14-1.1a3.52,3.52,0,0,1-1.57-.63c-2.31-1.68-1.11-5,.47-6.95.47-.57,1-1.15,1.46-1.76,1.22-1.54.33-4.06-1.48-4.17l-1.88-.11a43.11,43.11,0,0,0,2.78-7.86c.83-3.33-1.73-6.46-4.63-5.7l-3.9,1a2.37,2.37,0,0,1-1.53.07,2.23,2.23,0,0,1-1.16-1.68c-1-5.09,7.26-7.79,6.33-12.9-.67-3.73-5.21-3.78-8.4-2.9a68.78,68.78,0,0,1,2.19-14.11,2,2,0,0,0-1.67-2.6l-4.8.11a1.87,1.87,0,0,1-1.47-.4,2.11,2.11,0,0,1-.46-1.34c-.17-2.78,1.57-5.18,2.27-7.84s-.81-6.59-3.1-5.75c-3.06-1.45-5.17.76-6.06-2.45a5,5,0,0,1-.16-1.8c.3-3.6,3.3-5.84,4-9.22a14.49,14.49,0,0,0-.45-6.16,3.35,3.35,0,0,0-.81-1.83,4.1,4.1,0,0,0-1.73-.59c-2.91-.88-3.14-5.61-2.33-9,.62-2.56,1.37-5.56.76-7.93A2.15,2.15,0,0,0,97.63,56a10.3,10.3,0,0,0-3.4,1.79c-1.51-3.21-.6-7.36-2.29-10.56a4.64,4.64,0,0,0-1.68-1.85c-2.58-1.52-4.78,1.12-5.13,3.82a16,16,0,0,0,.88,6.3c-1.59-.92-3.6.46-4.33,2.34A13.49,13.49,0,0,0,81.33,64q.56,5.76,1.12,11.51c-1.23-2.16-4.42-1.34-5.56.89s-.81,5.06-.3,7.58c.57,2.78,1.08,7.58.19,10.31-3.62,1.91-4-2.91-6.89-2.35a3.77,3.77,0,0,0-2.72,3.27c-.7,4.47.71,8.78.57,13-2.79-1-5.93,2.54-5.17,5.82.46,2,2,3.5,2.09,5.69a2.66,2.66,0,0,1-1,2.3c-1.55,1.11-2.5-1.37-4.1-.06a3,3,0,0,0-1,2.48c.16,2.64,2.24,4.3,2.51,6.9a3.21,3.21,0,0,1-.8,2.56c-1,1-1.81.31-2.71.2-2.11-.26-3.55,2.76-3.18,5.18s1.86,4.37,3,6.45,1.94,4.8.89,6.93c-1.83-1.48-2.64-4.22-4.66-5.52a2.66,2.66,0,0,0-2.52-.33c-1.73.74-1.94,3.14-1.82,5.13a36.23,36.23,0,0,0,3.88,14.2c-2.52,2.32-5.37-5.37-8.35-3.32a3.26,3.26,0,0,0-1.22,2.93,40.25,40.25,0,0,0,6.58,19.71,3.58,3.58,0,0,0-3.8-1.25,4.51,4.51,0,0,0-2.76,4.27c0,2.72,2.07,4.73,3.35,7s1.23,6.3-1.08,6.75-3.55-3.4-5.67-4.74c-2.52-1.58-5.79,1.13-6.36,4.39s.7,6.55,2.16,9.42,3.17,5.69,3.57,9l-.9.58c-3.56-3.26-7.38.65-6.19,4.47a16.77,16.77,0,0,1,1,4.85l-.11,2.47c-.07,4.12-3.39,7.78-6.94,7.66-2.83-.09-5.75.8-7,3.75-1.46,3.43-.22,8.15,2.89,9.77a8.15,8.15,0,0,1,2.37,1.74c2.81,3.14.61,5.24-.11,7.72a7.79,7.79,0,0,0,3.3,8.28c2.49,1.58,5.53,1.53,8.31.83,1.79-.45,3.61-1.15,5.42-.8,3.37,1.62.74,5.94,4,9.94A8.16,8.16,0,0,0,49,283.75c3.82,1.22,6.41-.3,8.51-2.87A9.82,9.82,0,0,1,61,278.05c1.43-.6,2.93.71,2.89,2.48-.06,3.07.18,6.14,1.84,8.73a5.17,5.17,0,0,0,4.35,2.64c3.4-.08,5.1-4,6.49-7.39,1.72-4.12,5-8.83,9.57-4.42a7.88,7.88,0,0,1,2.1,4.22c.69,3.52,4.47,8.6,7.52,6.37,2.52-1.84,1.82-7.09,5.41-7.93a4,4,0,0,1,3.1.66c3.8,2.55,4.35,8.56,8.55,10.52a3.43,3.43,0,0,0,4.26-1.07c1.24-1.66.49-3.28.35-4.93-.33-3.73,2.51-7,5.57-8.15s6.39-.95,9.59-1.37,6.65-1.8,8.27-5.05c.59-1.2.9-2.58,1.54-3.75,1.88-3.4,5.87-3.95,9.32-4.45s7.49-1.9,8.48-5.77C161.3,255,155.93,250.59,152.73,253.34Z" style="fill:#f0f0f0"></path><path d="M316.78,284.84l-13.41,1.92s-.08,37.56-.56,42.19-6.87,9.25-6.87,9.25h25.19C314.59,327,316.78,284.84,316.78,284.84Z" style="fill:#f0f0f0"></path><path d="M356.1,276c.53-3.11,1.07-6.23,1.6-9.34a2.74,2.74,0,0,0-.52-2.73,1.8,1.8,0,0,0-.91-.44c-2-.34-3.54,2.12-5.51,2.1-1.18-1.77.12-4.28,1.51-5.84s3.16-3.6,2.49-5.84a3.3,3.3,0,0,0-2.19-2.2c-1.72-.51-3.37.21-4.95.92-1-2.84,2.13-5.07,4-7.53,1.13-1.51,0-3.83-1.68-3.51l-6.35,1.2a3.22,3.22,0,0,1-1.84-.17c-2.36-1-1.88-4.2-.8-6.28.43-.81.93-1.61,1.34-2.44.74-1.49-.13-3.41-1.62-3.48a16.32,16.32,0,0,0-4.12.34c-1.35-2.66,1.18-5.69,3.49-7.21a15.24,15.24,0,0,0,3.19-2.63c1.37-1.57.6-4.29-1.3-4.63l-4.58-.82a2.7,2.7,0,0,1-1.17-.47c-1.72-1.25-.83-3.73.35-5.18.35-.43.73-.86,1.08-1.31.92-1.16.25-3-1.1-3.11l-1.4-.08a33,33,0,0,0,2.08-5.87c.62-2.48-1.29-4.82-3.46-4.25l-2.91.77a1.94,1.94,0,0,1-1.14.05,1.67,1.67,0,0,1-.86-1.26c-.78-3.79,5.41-5.8,4.72-9.62-.5-2.78-3.89-2.81-6.27-2.16a51,51,0,0,1,1.64-10.53,1.46,1.46,0,0,0-1.25-1.93l-3.58.08a1.4,1.4,0,0,1-1.1-.3,1.6,1.6,0,0,1-.33-1c-.13-2.07,1.17-3.86,1.69-5.85s-.61-4.91-2.31-4.28c-2.29-1.08-3.86.56-4.52-1.83a3.78,3.78,0,0,1-.13-1.34c.23-2.69,2.47-4.36,3-6.88a10.85,10.85,0,0,0-.34-4.59,2.47,2.47,0,0,0-.6-1.37,3.3,3.3,0,0,0-1.29-.44c-2.17-.65-2.34-4.18-1.74-6.69.46-1.91,1-4.14.57-5.91a1.61,1.61,0,0,0-2-1.26,7.58,7.58,0,0,0-2.54,1.34c-1.12-2.4-.45-5.49-1.71-7.88a3.42,3.42,0,0,0-1.25-1.38c-1.93-1.13-3.56.84-3.83,2.85a12,12,0,0,0,.66,4.7c-1.18-.69-2.68.34-3.23,1.74a10,10,0,0,0-.26,4.56l.84,8.58c-.92-1.61-3.3-1-4.15.67s-.61,3.77-.22,5.65c.42,2.07.8,5.65.14,7.69-2.7,1.43-3-2.17-5.14-1.75a2.81,2.81,0,0,0-2,2.43c-.52,3.34.53,6.55.43,9.69-2.09-.73-4.42,1.9-3.86,4.34.35,1.49,1.49,2.61,1.56,4.24a2,2,0,0,1-.72,1.72c-1.15.83-1.86-1-3-.05a2.25,2.25,0,0,0-.73,1.85c.12,2,1.67,3.21,1.87,5.15a2.38,2.38,0,0,1-.59,1.91c-.72.74-1.35.23-2,.15-1.57-.19-2.64,2.06-2.36,3.86s1.38,3.26,2.23,4.81,1.44,3.58.66,5.17c-1.36-1.11-2-3.15-3.47-4.12a2,2,0,0,0-1.88-.24c-1.29.55-1.45,2.34-1.36,3.82a26.89,26.89,0,0,0,2.89,10.59c-1.88,1.73-4-4-6.23-2.47a2.47,2.47,0,0,0-.91,2.18,30.08,30.08,0,0,0,4.91,14.7,2.66,2.66,0,0,0-2.83-.93,3.36,3.36,0,0,0-2.06,3.18c0,2,1.54,3.53,2.5,5.23s.91,4.69-.81,5-2.64-2.53-4.23-3.53c-1.88-1.18-4.31.84-4.74,3.27s.52,4.89,1.61,7,2.36,4.25,2.66,6.7l-.67.43c-2.66-2.43-5.5.48-4.61,3.33a12.68,12.68,0,0,1,.77,3.62l-.09,1.84c-.05,3.07-2.52,5.81-5.17,5.72-2.11-.07-4.29.59-5.23,2.79-1.08,2.56-.15,6.08,2.16,7.29a6.14,6.14,0,0,1,1.77,1.29c2.1,2.34.45,3.91-.08,5.76a5.81,5.81,0,0,0,2.45,6.17,7.88,7.88,0,0,0,6.2.63,9.5,9.5,0,0,1,4.05-.6c2.51,1.21.55,4.43,2.95,7.41a6.1,6.1,0,0,0,2.5,1.67c2.85.91,4.78-.22,6.35-2.14a7.35,7.35,0,0,1,2.57-2.11c1.07-.45,2.18.53,2.15,1.85a11.45,11.45,0,0,0,1.37,6.51,3.89,3.89,0,0,0,3.25,2c2.54-.06,3.8-3,4.84-5.51,1.28-3.07,3.71-6.58,7.14-3.3a5.82,5.82,0,0,1,1.56,3.15c.52,2.63,3.33,6.41,5.61,4.75,1.88-1.37,1.36-5.29,4-5.92a3,3,0,0,1,2.32.5c2.83,1.9,3.24,6.38,6.37,7.84a2.55,2.55,0,0,0,3.18-.8c.92-1.23.37-2.44.26-3.67-.25-2.78,1.87-5.19,4.16-6.08s4.76-.71,7.15-1,5-1.34,6.16-3.77c.45-.89.67-1.92,1.15-2.79,1.4-2.54,4.38-2.95,6.95-3.32s5.59-1.42,6.32-4.31C362.5,277.15,358.49,273.9,356.1,276Z" style="fill:#f0f0f0"></path><path d="M210.5,275.26l-16,2.29s-.1,44.94-.67,50.48-8.23,11.06-8.23,11.06H215.7C207.87,325.72,210.5,275.26,210.5,275.26Z" style="fill:#e6e6e6"></path><path d="M257.54,264.62q.94-5.6,1.9-11.18c.19-1.13.38-2.37-.61-3.26a2.18,2.18,0,0,0-1.1-.53c-2.44-.41-4.23,2.54-6.59,2.52-1.4-2.12.15-5.13,1.81-7s3.78-4.31,3-7a3.87,3.87,0,0,0-2.62-2.62c-2.05-.61-4,.25-5.91,1.09-1.22-3.39,2.54-6.07,4.76-9,1.35-1.8,0-4.58-2-4.2l-7.59,1.44a3.84,3.84,0,0,1-2.22-.2c-2.82-1.21-2.24-5-.94-7.51.5-1,1.1-1.93,1.59-2.92.89-1.79-.15-4.09-1.93-4.17a19,19,0,0,0-4.93.41c-1.61-3.18,1.41-6.81,4.18-8.63a18.51,18.51,0,0,0,3.81-3.14c1.64-1.88.72-5.13-1.56-5.54l-5.48-1a3.53,3.53,0,0,1-1.4-.56c-2-1.5-1-4.46.42-6.2.42-.52.88-1,1.3-1.57,1.1-1.38.3-3.62-1.31-3.72l-1.68-.1a39.23,39.23,0,0,0,2.48-7c.74-3-1.54-5.76-4.13-5.08l-3.48.91a2.15,2.15,0,0,1-1.37.06,2,2,0,0,1-1-1.5c-.93-4.53,6.47-6.94,5.65-11.51-.6-3.32-4.65-3.37-7.5-2.59a62,62,0,0,1,2-12.59,1.75,1.75,0,0,0-1.5-2.31l-4.28.1a1.66,1.66,0,0,1-1.31-.36,1.89,1.89,0,0,1-.4-1.2c-.16-2.48,1.4-4.62,2-7s-.72-5.88-2.76-5.13c-2.74-1.29-4.62.68-5.41-2.19a4.52,4.52,0,0,1-.15-1.6c.27-3.22,2.95-5.21,3.6-8.23a13,13,0,0,0-.39-5.5,3.06,3.06,0,0,0-.73-1.63,3.76,3.76,0,0,0-1.54-.52c-2.6-.79-2.8-5-2.08-8,.55-2.29,1.22-5,.68-7.08a1.91,1.91,0,0,0-2.34-1.5,9,9,0,0,0-3,1.59c-1.35-2.86-.54-6.57-2-9.42a4.1,4.1,0,0,0-1.51-1.65c-2.3-1.36-4.26,1-4.57,3.41a14.23,14.23,0,0,0,.79,5.62c-1.42-.83-3.21.41-3.87,2.09a12,12,0,0,0-.31,5.45q.51,5.13,1,10.27c-1.1-1.94-3.94-1.2-5,.79s-.73,4.51-.27,6.76c.51,2.48,1,6.76.17,9.2-3.23,1.71-3.56-2.6-6.15-2.09a3.35,3.35,0,0,0-2.42,2.91c-.63,4,.63,7.83.51,11.59-2.49-.88-5.29,2.27-4.61,5.19.41,1.79,1.78,3.12,1.86,5.08a2.36,2.36,0,0,1-.86,2.05c-1.38,1-2.23-1.22-3.65-.06a2.68,2.68,0,0,0-.87,2.22c.14,2.35,2,3.84,2.24,6.16a2.9,2.9,0,0,1-.71,2.28c-.87.89-1.62.27-2.43.18-1.88-.23-3.16,2.46-2.83,4.62s1.66,3.89,2.67,5.75,1.73,4.28.79,6.19c-1.63-1.33-2.35-3.77-4.15-4.93a2.43,2.43,0,0,0-2.25-.3c-1.54.67-1.74,2.81-1.62,4.58a32.17,32.17,0,0,0,3.45,12.67c-2.24,2.07-4.79-4.79-7.45-3a3,3,0,0,0-1.09,2.61A36,36,0,0,0,166.09,204a3.21,3.21,0,0,0-3.4-1.12,4,4,0,0,0-2.46,3.81c0,2.43,1.85,4.22,3,6.25s1.09,5.62-1,6-3.16-3-5.05-4.22c-2.25-1.41-5.16,1-5.68,3.91s.63,5.85,1.93,8.41,2.83,5.08,3.19,8l-.8.52c-3.18-2.91-6.59.58-5.52,4a15.17,15.17,0,0,1,.91,4.32l-.1,2.2c-.06,3.68-3,7-6.18,6.84-2.53-.08-5.14.71-6.26,3.34-1.29,3.07-.18,7.28,2.58,8.72a7.23,7.23,0,0,1,2.12,1.55c2.51,2.8.54,4.68-.1,6.89a7,7,0,0,0,2.94,7.39,9.45,9.45,0,0,0,7.42.74c1.6-.4,3.22-1,4.83-.71,3,1.44.66,5.29,3.54,8.86a7.37,7.37,0,0,0,3,2c3.41,1.08,5.72-.27,7.6-2.57a8.66,8.66,0,0,1,3.07-2.52c1.27-.54,2.61.63,2.58,2.21-.06,2.74.16,5.47,1.63,7.79a4.63,4.63,0,0,0,3.89,2.35c3-.07,4.54-3.6,5.79-6.59,1.54-3.67,4.44-7.87,8.54-3.94a7,7,0,0,1,1.87,3.76c.62,3.15,4,7.67,6.71,5.68,2.25-1.64,1.62-6.32,4.82-7.07a3.51,3.51,0,0,1,2.77.59c3.39,2.27,3.88,7.64,7.63,9.39a3.05,3.05,0,0,0,3.79-1c1.11-1.48.45-2.92.32-4.4-.3-3.33,2.24-6.21,5-7.27s5.7-.84,8.56-1.22,5.93-1.61,7.37-4.51c.53-1.07.8-2.3,1.38-3.34,1.68-3,5.23-3.53,8.31-4s6.69-1.7,7.57-5.15C265.18,266.06,260.39,262.16,257.54,264.62Z" style="fill:#e6e6e6"></path><path d="M431.91,264.19l-18,2.56s-.11,50.29-.75,56.49S404,335.62,404,335.62h33.73C429,320.66,431.91,264.19,431.91,264.19Z" style="fill:#ebebeb"></path><path d="M484.55,252.28l2.13-12.51c.22-1.26.43-2.65-.68-3.65a2.48,2.48,0,0,0-1.23-.59c-2.73-.46-4.74,2.85-7.38,2.82-1.57-2.37.17-5.74,2-7.82s4.23-4.83,3.34-7.83a4.34,4.34,0,0,0-2.94-2.93c-2.29-.69-4.5.28-6.61,1.23-1.37-3.81,2.84-6.8,5.32-10.09,1.51-2,0-5.13-2.24-4.7l-8.5,1.6a4.21,4.21,0,0,1-2.48-.22c-3.16-1.34-2.51-5.62-1.06-8.4.57-1.09,1.24-2.16,1.79-3.27,1-2-.18-4.57-2.17-4.66a21.31,21.31,0,0,0-5.51.45c-1.81-3.56,1.58-7.62,4.67-9.65a20.57,20.57,0,0,0,4.27-3.52c1.83-2.1.8-5.74-1.75-6.2l-6.13-1.09a3.78,3.78,0,0,1-1.56-.63c-2.31-1.68-1.11-5,.46-6.94.47-.58,1-1.16,1.46-1.76,1.23-1.54.33-4-1.47-4.16l-1.88-.11a43.11,43.11,0,0,0,2.78-7.86c.83-3.31-1.73-6.45-4.63-5.68l-3.9,1a2.48,2.48,0,0,1-1.52.07,2.23,2.23,0,0,1-1.16-1.68c-1-5.08,7.25-7.78,6.33-12.89-.67-3.72-5.21-3.76-8.39-2.89a68.58,68.58,0,0,1,2.18-14.09,2,2,0,0,0-1.67-2.59l-4.79.11a1.89,1.89,0,0,1-1.47-.4,2.16,2.16,0,0,1-.45-1.34c-.17-2.78,1.57-5.17,2.27-7.83s-.81-6.57-3.1-5.74c-3-1.44-5.16.76-6-2.44a5.2,5.2,0,0,1-.17-1.8c.31-3.6,3.3-5.83,4-9.21a14.46,14.46,0,0,0-.45-6.15,3.35,3.35,0,0,0-.81-1.83,4.13,4.13,0,0,0-1.73-.58c-2.9-.88-3.12-5.6-2.32-9,.62-2.56,1.37-5.55.76-7.92a2.14,2.14,0,0,0-2.62-1.68,10.12,10.12,0,0,0-3.4,1.79c-1.51-3.21-.6-7.35-2.29-10.54a4.6,4.6,0,0,0-1.68-1.86c-2.57-1.52-4.77,1.13-5.12,3.82a16.11,16.11,0,0,0,.88,6.29c-1.59-.92-3.59.46-4.32,2.34a13.44,13.44,0,0,0-.35,6.1q.56,5.75,1.12,11.49c-1.23-2.16-4.42-1.34-5.55.89s-.82,5-.3,7.56c.56,2.77,1.07,7.57.18,10.3-3.61,1.91-4-2.91-6.88-2.34a3.73,3.73,0,0,0-2.7,3.26c-.71,4.46.7,8.76.57,13-2.8-1-5.93,2.55-5.17,5.82.46,2,2,3.49,2.09,5.67a2.7,2.7,0,0,1-1,2.31c-1.54,1.1-2.49-1.38-4.08-.07a3,3,0,0,0-1,2.48c.15,2.63,2.23,4.29,2.5,6.89a3.21,3.21,0,0,1-.8,2.56c-1,1-1.81.3-2.71.19-2.1-.25-3.54,2.76-3.16,5.18s1.85,4.36,3,6.43,1.93,4.8.88,6.93c-1.82-1.49-2.63-4.22-4.65-5.52a2.7,2.7,0,0,0-2.51-.33c-1.73.75-1.94,3.14-1.82,5.12a36.25,36.25,0,0,0,3.87,14.18c-2.51,2.32-5.36-5.36-8.34-3.31a3.27,3.27,0,0,0-1.21,2.93,40.3,40.3,0,0,0,6.57,19.68,3.58,3.58,0,0,0-3.8-1.26,4.51,4.51,0,0,0-2.75,4.26c0,2.72,2.07,4.73,3.35,7s1.22,6.29-1.09,6.73-3.54-3.39-5.66-4.72c-2.51-1.59-5.77,1.12-6.35,4.37s.71,6.55,2.16,9.41,3.16,5.69,3.57,9l-.9.58c-3.56-3.26-7.37.64-6.18,4.46a16.78,16.78,0,0,1,1,4.84l-.11,2.46c-.08,4.12-3.39,7.78-6.93,7.66-2.83-.1-5.75.79-7,3.74-1.45,3.42-.21,8.14,2.89,9.75a8.15,8.15,0,0,1,2.37,1.74c2.81,3.13.61,5.23-.11,7.71a7.77,7.77,0,0,0,3.29,8.26c2.49,1.58,5.52,1.53,8.3.84,1.79-.45,3.6-1.15,5.41-.8,3.36,1.61.74,5.92,4,9.92a8.19,8.19,0,0,0,3.35,2.24c3.81,1.22,6.4-.3,8.5-2.87a9.67,9.67,0,0,1,3.43-2.82c1.43-.61,2.92.7,2.89,2.47-.06,3.07.18,6.13,1.83,8.72a5.16,5.16,0,0,0,4.34,2.63c3.4-.08,5.1-4,6.49-7.37,1.72-4.11,5-8.82,9.56-4.42a7.94,7.94,0,0,1,2.09,4.21c.69,3.52,4.46,8.59,7.51,6.36,2.52-1.83,1.81-7.07,5.4-7.92a3.92,3.92,0,0,1,3.09.67c3.79,2.54,4.34,8.55,8.54,10.5a3.42,3.42,0,0,0,4.25-1.07c1.24-1.65.49-3.27.35-4.92-.33-3.72,2.51-6.95,5.57-8.14s6.37-.94,9.57-1.37,6.64-1.79,8.25-5c.6-1.2.9-2.58,1.55-3.74,1.87-3.39,5.85-3.94,9.3-4.44s7.48-1.9,8.46-5.77C493.11,253.89,487.75,249.53,484.55,252.28Z" style="fill:#ebebeb"></path></g><g id="freepik--Shadow--inject-12"><path d="M458.88,456.39c0,3.39-93.52,6.14-208.88,6.14s-208.88-2.75-208.88-6.14,93.52-6.13,208.88-6.13S458.88,453,458.88,456.39Z" style="fill:#f5f5f5"></path></g><g id="freepik--Plants--inject-12"><path d="M149.78,430.78a12.13,12.13,0,0,0-2.78-2.85,3.33,3.33,0,0,0-3.18-.59,3.4,3.4,0,0,0-1.77,3.62,11.38,11.38,0,0,0,1.68,4.43c3.48,5.09,6.7,9.75,12.06,13.54C155.79,442.6,153,436.17,149.78,430.78Z" style="fill:#3F28C0"></path><path d="M167.47,431.65c-1.2-.65-3.43.28-4.52,1.1a16.58,16.58,0,0,0-4.82,5.7c-1.68,3-1.88,7.23-2.09,9.91,4.25-3.45,8.57-7,11.48-11.62a6.13,6.13,0,0,0,1.07-2.62A2.52,2.52,0,0,0,167.47,431.65Z" style="fill:#3F28C0"></path><path d="M156.43,451.62a.26.26,0,0,1-.25-.2,41.33,41.33,0,0,0-5.3-13.11.25.25,0,0,1,.43-.26,41.94,41.94,0,0,1,5.36,13.26.25.25,0,0,1-.19.3Z" style="fill:#263238"></path><path d="M155.87,449h-.09a.25.25,0,0,1-.15-.32,28.63,28.63,0,0,1,4.94-8.61.25.25,0,0,1,.36,0,.25.25,0,0,1,0,.35,28,28,0,0,0-4.86,8.46A.25.25,0,0,1,155.87,449Z" style="fill:#263238"></path><path d="M337.75,435.07a10.55,10.55,0,0,0-2.37-2.44,2.86,2.86,0,0,0-2.73-.5,2.91,2.91,0,0,0-1.51,3.09,9.78,9.78,0,0,0,1.44,3.79c3,4.35,5.72,8.33,10.31,11.57C342.89,445.18,340.49,439.68,337.75,435.07Z" style="fill:#3F28C0"></path><path d="M352.88,435.82c-1-.57-2.94.23-3.87.93a14.25,14.25,0,0,0-4.12,4.87c-1.44,2.58-1.61,6.19-1.79,8.48,3.63-3,7.33-6,9.82-9.93a5.26,5.26,0,0,0,.91-2.25A2.15,2.15,0,0,0,352.88,435.82Z" style="fill:#3F28C0"></path><path d="M343.43,452.92a.25.25,0,0,1-.24-.2,35.19,35.19,0,0,0-4.53-11.19.26.26,0,0,1,.09-.35.25.25,0,0,1,.34.09,36,36,0,0,1,4.59,11.34.25.25,0,0,1-.19.3Z" style="fill:#263238"></path><path d="M343,450.7l-.08,0a.24.24,0,0,1-.15-.32A24.33,24.33,0,0,1,347,443a.25.25,0,0,1,.35,0,.26.26,0,0,1,0,.36,23.82,23.82,0,0,0-4.15,7.21A.26.26,0,0,1,343,450.7Z" style="fill:#263238"></path></g><g id="freepik--musical-notes--inject-12"><path d="M371.18,87.14a3.85,3.85,0,0,0-2.55-.9A3.67,3.67,0,0,1,365.82,85l-.11-.37a.25.25,0,1,0-.47.14l4.24,14.31a2.7,2.7,0,0,0-1.07-.35,5,5,0,0,0-2.69.49c-1.9.89-3,2.62-2.4,3.86.5,1.07,2.07,1.44,3.69,1a5.48,5.48,0,0,0,.8-.3,5,5,0,0,0,2.1-1.75,2.16,2.16,0,0,0,.31-2.08h0l-3-10a3.9,3.9,0,0,0,2.59.94,3.75,3.75,0,0,1,2.93,1.38.21.21,0,0,0,.19,0h0a.16.16,0,0,0,.08-.2L372,88.5A2.54,2.54,0,0,0,371.18,87.14Z" style="fill:#263238"></path><path d="M39.27,134.68a3.91,3.91,0,0,0-2.54-.9,3.67,3.67,0,0,1-2.81-1.23l-.12-.37a.24.24,0,1,0-.46.14l4.24,14.31a2.75,2.75,0,0,0-1.07-.35,5,5,0,0,0-2.69.49c-1.91.89-3,2.62-2.4,3.86.49,1.08,2.06,1.44,3.69,1a5.36,5.36,0,0,0,.79-.3A4.93,4.93,0,0,0,38,149.53a2.19,2.19,0,0,0,.31-2.08h0l-3-10a3.87,3.87,0,0,0,2.6.94,3.75,3.75,0,0,1,2.93,1.38.24.24,0,0,0,.18,0h0a.19.19,0,0,0,.09-.21l-1-3.54A2.66,2.66,0,0,0,39.27,134.68Z" style="fill:#263238"></path><path d="M224.06,73a3.91,3.91,0,0,0-2.54-.9,3.67,3.67,0,0,1-2.81-1.23l-.11-.37a.25.25,0,0,0-.3-.16.24.24,0,0,0-.17.3L222.37,85a3.06,3.06,0,0,0-1.07-.35,4.9,4.9,0,0,0-2.69.5c-1.9.88-3,2.61-2.4,3.86.5,1.07,2.07,1.43,3.69.94a6,6,0,0,0,.8-.3,4.9,4.9,0,0,0,2.1-1.75,2.16,2.16,0,0,0,.31-2.08h0l-3-10a3.91,3.91,0,0,0,2.59,1,3.71,3.71,0,0,1,2.93,1.37.18.18,0,0,0,.18,0h0a.18.18,0,0,0,.08-.21l-1.05-3.54A2.53,2.53,0,0,0,224.06,73Z" style="fill:#263238"></path><path d="M462,151.6h0l1-8.56.39-3.19v-.18l-8.71-1.07v.18l-.4,3.19-1,7.83a3.13,3.13,0,0,0-2.61-1c-1.55,0-2.8.91-2.77,1.92s1,1.59,2.24,1.74a3.21,3.21,0,0,0,.62,0c1.55,0,2.78-.89,2.78-1.89h0l.9-7.35,8,1-.81,6.62a1.92,1.92,0,0,0-.61-.56,3.8,3.8,0,0,0-2-.46c-1.56,0-2.81.91-2.78,1.92s1,1.59,2.25,1.74a3.11,3.11,0,0,0,.61,0C460.78,153.45,462,152.6,462,151.6Zm-7.42-8.73.1-.85,8,1-.1.85Z" style="fill:#263238"></path><path d="M126.17,96.19h0l1.74-14.26.65-5.32v-.3L114,74.52v.3l-.66,5.32-1.6,13.06a5.23,5.23,0,0,0-4.35-1.71c-2.6.06-4.67,1.51-4.63,3.2,0,1.46,1.64,2.65,3.74,2.91a8.85,8.85,0,0,0,1,0c2.58-.07,4.64-1.49,4.63-3.16h0l1.5-12.26L127,83.82l-1.35,11a3.36,3.36,0,0,0-1-.93,6.23,6.23,0,0,0-3.3-.77c-2.6.08-4.68,1.51-4.64,3.21,0,1.45,1.65,2.64,3.75,2.9a5.91,5.91,0,0,0,1,0C124.11,99.28,126.17,97.87,126.17,96.19ZM113.8,81.64l.16-1.42,13.35,1.63-.17,1.42Z" style="fill:#263238"></path><path d="M292.49,173.08h0l1.05-8.56.39-3.19v-.18l-8.71-1.08v.19l-.4,3.19-1,7.83a3.14,3.14,0,0,0-2.61-1c-1.56,0-2.8.9-2.77,1.92,0,.87,1,1.59,2.24,1.74a3.21,3.21,0,0,0,.62,0c1.54,0,2.78-.89,2.78-1.9h0l.89-7.35,8,1-.81,6.61a2,2,0,0,0-.61-.55,3.62,3.62,0,0,0-2-.46c-1.56,0-2.81.9-2.78,1.92s1,1.59,2.24,1.74a3.21,3.21,0,0,0,.62,0C291.26,174.93,292.49,174.08,292.49,173.08Zm-7.41-8.73.09-.85,8,1-.1.85Z" style="fill:#263238"></path><path d="M316.06,79.57h0L315.22,64l-.31-5.79,0-.29-14.36,2.36v.32l.32,5.8.76,14.21a4.55,4.55,0,0,0-4.5-.53c-2.51.85-4.26,3-3.92,4.73.3,1.53,2.05,2.31,4.13,2a7.4,7.4,0,0,0,1-.26c2.47-.82,4.2-2.87,3.91-4.68h0l-.83-15.53,13.19-2.18.79,14.15a4.54,4.54,0,0,0-4.5-.53,6.8,6.8,0,0,0-3,1.95,2.94,2.94,0,0,0-.53,3.75,2.12,2.12,0,0,0,1.43.89,4.93,4.93,0,0,0,2.26.1,6.33,6.33,0,0,0,1-.26C314.61,83.43,316.35,81.3,316.06,79.57Z" style="fill:#263238"></path><path d="M155,138h0l1-11,.36-4.08v-.21l-10.29.23,0,.22-.35,4.09-.89,10a3.2,3.2,0,0,0-3.09-.82c-1.84.34-3.27,1.64-3.21,2.92.05,1.1,1.2,1.82,2.69,1.79a3.82,3.82,0,0,0,.75-.08c1.81-.32,3.22-1.59,3.2-2.88h0l1-11,9.45-.21-.86,10a3.21,3.21,0,0,0-3.1-.82,4.9,4.9,0,0,0-2.29,1.06,2.09,2.09,0,0,0-.74,2.58,1.52,1.52,0,0,0,.91.76,3.36,3.36,0,0,0,1.57.29,4.88,4.88,0,0,0,.76-.07C153.64,140.58,155.07,139.27,155,138Z" style="fill:#263238"></path></g><g id="freepik--speech-bubble--inject-12"><path d="M293.24,128.54a18.65,18.65,0,1,0-29.75,7.69l.08,5.6,5.47-2.27.28.12A18.66,18.66,0,0,0,293.24,128.54Z" style="fill:#3F28C0"></path><path d="M296.27,118.42a.24.24,0,0,1-.25-.22,18.3,18.3,0,0,0-9.8-14.14.24.24,0,0,1-.11-.34.25.25,0,0,1,.33-.11,18.82,18.82,0,0,1,10.07,14.54.23.23,0,0,1-.22.27Z" style="fill:#3F28C0"></path><path d="M296.38,124h-.05a.25.25,0,0,1-.19-.3,6.57,6.57,0,0,0,.07-2.65.25.25,0,0,1,.21-.29.25.25,0,0,1,.29.2,7.07,7.07,0,0,1-.08,2.86A.26.26,0,0,1,296.38,124Z" style="fill:#3F28C0"></path><g style="opacity:0.6000000000000001"><path d="M293.24,128.54a18.65,18.65,0,1,0-29.75,7.69l.08,5.6,5.47-2.27.28.12A18.66,18.66,0,0,0,293.24,128.54Z" style="fill:#fff"></path></g><path d="M284.94,115.64a4.78,4.78,0,0,0-4.66-.73,6.21,6.21,0,0,0-2.87,2.22,7.38,7.38,0,0,0-1.17,2.05,7.38,7.38,0,0,0-1.17-2.05,6.21,6.21,0,0,0-2.87-2.22,4.79,4.79,0,0,0-4.66.73c-1.39,1.11-1.61,3.17-1.2,4.9a12.13,12.13,0,0,0,2.66,4.77,24.46,24.46,0,0,0,7.24,6.19,23.87,23.87,0,0,0,7.24-6.19,12,12,0,0,0,2.67-4.77C286.56,118.81,286.33,116.75,284.94,115.64Z" style="fill:#3F28C0"></path></g><g id="freepik--character-3--inject-12"><path d="M405,178.46c.67,6.75,1.45,14,5.89,19.45a16.83,16.83,0,0,0,15.75,5.83c.47-.08.27-.8-.2-.72a16.09,16.09,0,0,1-15.45-6.2c-3.91-5.27-4.62-12-5.24-18.36-.05-.47-.8-.48-.75,0Z" style="fill:#263238"></path><path d="M430.05,209.81a5.94,5.94,0,0,0-4-4.42,21.81,21.81,0,0,0-5.58-.62,15.39,15.39,0,0,1-11.94-6.69c-2.91-4.38-2.14-9.91-2.44-15.58s-.5-10.65-2.32-17.6c-1.12-4.29-8-12.35-15.26-9.35l-12,6c-5.16,7.43-6.37,12-7.92,21.67s.73,22.78,4.85,31.15c3,6.14,7.52,10.93,12.2,15.16,3.56,3.22,7.54,6.29,11.94,6.35,2.63,0,5.19-1,7.68-2.06l11.86-4.95a12,12,0,0,0,5.17-3.33c1.39-1.73,2-4.65.9-6.66a14,14,0,0,0,4.91-3A7.19,7.19,0,0,0,430.05,209.81Z" style="fill:#263238"></path><path d="M400.06,200.94a42.36,42.36,0,0,0-8.05,5.6,17,17,0,0,1-3,2.06c-2.91,1.54-5.57,2.43-6.29,1a4.78,4.78,0,0,1-.37-1c-.61-2.35-.36-5.65,1.54-7.16,2.14-1.71,3.18-3.17,2.79-5.48a17.28,17.28,0,0,0-1.23-4l2.47-1.48,8.82-8.9C395.71,187.09,395.41,197.71,400.06,200.94Z" style="fill:#fdb473"></path><path d="M386.73,196.5c2.43-1.44,5.09-3.94,4.77-6.79a13.67,13.67,0,0,0-.69-3.07l-4.93,6.52A15.74,15.74,0,0,1,386.73,196.5Z" style="opacity:0.2"></path><path d="M398.43,171.61c-.83,9.06-1,12.9-5.67,17.65-7,7.14-17.85,4.74-19.71-4.24-1.67-8.08,0-21.54,8.86-25.34A11.65,11.65,0,0,1,398.43,171.61Z" style="fill:#fdb473"></path><path d="M386.69,174.56c0,1-.56,1.74-1.16,1.75s-1-.75-1-1.71.56-1.74,1.16-1.76S386.74,173.6,386.69,174.56Z" style="fill:#263238"></path><path d="M377.76,174.53c0,.93-.56,1.69-1.16,1.7s-1-.73-1-1.66.56-1.69,1.16-1.7S377.81,173.6,377.76,174.53Z" style="fill:#263238"></path><path d="M388.58,171.22a.42.42,0,0,1-.32-.1,3.26,3.26,0,0,0-3-.84.4.4,0,0,1-.52-.3.47.47,0,0,1,.33-.56,4.1,4.1,0,0,1,3.78,1,.45.45,0,0,1,0,.63A.47.47,0,0,1,388.58,171.22Z" style="fill:#263238"></path><path d="M374.76,170a.33.33,0,0,1-.21-.19.5.5,0,0,1,.22-.59,3.78,3.78,0,0,1,3.67-.24.41.41,0,0,1,.1.58.42.42,0,0,1-.56.18,3,3,0,0,0-2.91.23A.35.35,0,0,1,374.76,170Z" style="fill:#263238"></path><path d="M380.19,174.09a31,31,0,0,1-3,5.5.7.7,0,0,0,.32,1.07,4.51,4.51,0,0,0,2.43,0Z" style="fill:#ae3228"></path><path d="M386,172.88l-2.08-.49S385.1,173.94,386,172.88Z" style="fill:#263238"></path><path d="M377,172.89l-2.08-.49S376,174,377,172.89Z" style="fill:#263238"></path><path d="M381.82,182.52a26.19,26.19,0,0,1,1.59,3.44l.66-.14c3-.63,4.12-1.9,4.52-3.12a4,4,0,0,0,.1-1.84,4.11,4.11,0,0,0-.3-1c-1.38,1.28-4.09,2.08-5.56,2.45C382.21,182.45,381.82,182.52,381.82,182.52Z"></path><path d="M382.83,182.29l.49,1c2.79-.6,4.67-1.39,5.37-2.43a4.11,4.11,0,0,0-.3-1C387,181.12,384.3,181.87,382.83,182.29Z" style="fill:#fff"></path><path d="M384.07,185.82c3-.63,4.12-1.9,4.52-3.12a9.59,9.59,0,0,0-3.15,1.36A3.57,3.57,0,0,0,384.07,185.82Z" style="fill:#dd5753"></path><path d="M372.41,173.86s4.09-11.41,11-13.12c.31-.07,4.63,9.87,8.85,11.81,0,0,.95,6.92,2.34,7.4s4.88-7.08,4.88-7.08,5.71-12.49-2.31-15.87-16.37-3.05-21.34,3.74S371.73,172,372.41,173.86Z" style="fill:#263238"></path><path d="M400.91,179a7.3,7.3,0,0,1-4.4,3.43c-2.4.6-3.64-3.26-2.82-5.66a4.82,4.82,0,0,1,5.43-3.12C401.42,174.1,402.13,176.87,400.91,179Z" style="fill:#fdb473"></path><path d="M396.1,178.76h0a.26.26,0,0,1-.23-.27,3.53,3.53,0,0,1,1.2-2.42,4.25,4.25,0,0,1,2.56-.88.25.25,0,0,1,.23.27.23.23,0,0,1-.26.23,3.68,3.68,0,0,0-2.2.75,3.07,3.07,0,0,0-1,2.08A.25.25,0,0,1,396.1,178.76Z" style="opacity:0.2"></path><path d="M373.08,165.55s8.05,1.2,17.43,1.64a114.45,114.45,0,0,0,14.28,0c0-1,.15-.64-.33-1.24,0,0-26.87,0-30.91-1.61C373.55,164.34,372.93,165,373.08,165.55Z" style="fill:#3F28C0"></path><path d="M399.07,174.41a1.38,1.38,0,0,0-.59-.63,3,3,0,0,0-2.51-.3,3.15,3.15,0,0,0,1.19-1.13,1.44,1.44,0,0,0-.08-1.57,1.34,1.34,0,0,0-1.59-.25,2.11,2.11,0,0,0-1,1.34,4.25,4.25,0,0,0-.16,1.18,2.4,2.4,0,0,0-2.1-1.87,1.39,1.39,0,0,0-.78.13.76.76,0,0,0-.4.65,1,1,0,0,0,.33.66,4,4,0,0,0,1.91,1.19,2.66,2.66,0,0,0-2.11.82,1.15,1.15,0,0,0-.33,1.23,1.17,1.17,0,0,0,1,.5,2.59,2.59,0,0,0,2.19-1.14,2.87,2.87,0,0,0,.49,2,1.41,1.41,0,0,0,1.88.33,1.28,1.28,0,0,0,.4-1.26,1.8,1.8,0,0,0-.8-1.09,6.3,6.3,0,0,0,2.28.25,1.06,1.06,0,0,0,.68-.24A.73.73,0,0,0,399.07,174.41Z" style="fill:#3F28C0"></path><path d="M395.48,174.12a.7.7,0,0,1-.7.71.71.71,0,0,1-.71-.71.7.7,0,0,1,.71-.7A.7.7,0,0,1,395.48,174.12Z" style="fill:#fff"></path><g id="freepik--freepik--Character--inject-85--inject-12"><path d="M365.47,276s-25.85,74.08-20.89,81.4C360,384.15,380.31,411.56,384,419.86c.89,1.24,5.59-1.29,6.31-2.83a38.71,38.71,0,0,0-1.69-9.59c-11.36-39.76-5.34-34.95-24.11-61.3,15.94-22.19,27.67-56.06,27.67-56.06Z" style="fill:#fdb473"></path><path d="M379.35,266.31s10,51.78,15.79,79.55c6.08,29.13,14.11,78.11,12.41,97.46,1.63,1,4.65,1.09,7.95.05,0,0,13.05-65-.09-96.22,13.27-56-5.23-84.23-5.23-84.23Z" style="fill:#fdb473"></path></g><path d="M378.61,410.55s4.51,5.95.42,9.68c-2.28,2.17-8.26,7.33-9.45,8.4s-1.07,2.39-.18,2.86,25.8-7.25,25.8-7.25,1-2.53-1.27-6.07a113.21,113.21,0,0,1-5.33-10.34Z" style="fill:#fdb473"></path><path d="M407.78,436.19s.05,8.33-5.28,11.21c-2.81,1.44-10.76,3.49-12.22,4.18s-1.69,2-1,2.69,26.8.32,26.8.32,1.67-2.15.49-6.19a27.61,27.61,0,0,1,.18-12.21Z" style="fill:#fdb473"></path><path d="M362.68,138.2l1.84,40.72,16.33,29.16L371,220.17s-13.9-24.52-17.51-36.58,1.44-45.39,1.44-45.39Z" style="fill:#fdb473"></path><path d="M361.23,140s2.72-1.75,3.25-4.36,1.66-4.57,1.93-6.54-1.75-.19-2.63,1-1.88,2.48-2.65,1.68-3.07-10.07-4.26-11.06-1.29.63-1.29.63-.62-2.23-1.57-2.23c-.25,0-.82.41-.7,1.47.28,2.39,1.12,7.38,1.12,7.38-.05-.29-1.52-6.37-1.86-7.26-.45-1.15-1.24-1.47-1.9-1.19-.94.4.63,8,.47,8.37,0,0-.76-4.41-2-4.83s-.92,2.37-.16,4.79c.69,2.21,1.47,6.73,2.4,8.91,1.13,2.69,2.5,4.24,5.24,4.31A9.3,9.3,0,0,0,361.23,140Z" style="fill:#fdb473"></path><path d="M356.83,127.22a.14.14,0,0,1-.13-.11c-.28-1.83-.65-3.67-1.1-5.45a.11.11,0,0,1,.09-.15c.06,0,.13,0,.15.09.45,1.79.82,3.63,1.11,5.47a.12.12,0,0,1-.1.14Z" style="opacity:0.30000000000000004"></path><path d="M351.38,129.74a.15.15,0,0,1-.12-.07.13.13,0,0,1,.07-.17,26.82,26.82,0,0,1,6.94-1.54h.08a.16.16,0,0,1,.1,0,.12.12,0,0,1,0,.13.13.13,0,0,1-.11.09h-.05a27.93,27.93,0,0,0-6.9,1.53Z" style="opacity:0.30000000000000004"></path><path d="M357.84,137.61a.13.13,0,0,1-.12-.09,4.37,4.37,0,0,1,2.6-4.94.14.14,0,0,1,.16.07.11.11,0,0,1-.07.16,4.21,4.21,0,0,0-2.06,1.89,4.12,4.12,0,0,0-.38,2.76.13.13,0,0,1-.1.15Z" style="opacity:0.30000000000000004"></path><path d="M410.72,226.83l4.86-22.12c-3.84-3.08-18.25-3.8-18.25-3.8H377l-4.3,8.4s-5.62,9-6.17,15c-.5,5.57,2.36,20.69,1.52,27.56l-.78,7.64c21.7,15.9,43.87,14.59,43.87,14.59-1-2.89-6.54-12.07-7.05-14.91.2-3.65-1.51-6.35.74-13.92C406.57,239.56,410.74,227.64,410.72,226.83Z" style="fill:#3F28C0"></path><path d="M379.82,200.91s-.25,32.53,8.77,25.81,15.59-24.8,15.26-25.28S388.34,199.63,379.82,200.91Z" style="fill:#fdb473"></path><path d="M384.87,199a47.82,47.82,0,0,0,12.43,17.81,49,49,0,0,0,4.24,3.37c1.11.79,2.7,2.14,4.17,1.54,2.88-1.19.44-6-.43-7.68-2.21-4.35-5.54-8.62-4.87-13.79,0-.29-.41-.28-.45,0-.45,3.45.91,6.71,2.54,9.68.85,1.56,1.78,3.09,2.57,4.69s1.7,3.41,1.45,5.16c-.44,3.1-3.66.8-5-.19a45.52,45.52,0,0,1-4.12-3.34,46.6,46.6,0,0,1-6.61-7.42,47.16,47.16,0,0,1-5.45-10c-.1-.27-.54-.15-.43.12Z" style="fill:#263238"></path><path d="M410.79,222.88c-.59,0-1.49.2-2.07.18a3.82,3.82,0,0,0,.67-1.59c0-.55-.83-.43-1.18,0a3.32,3.32,0,0,0-.48,1.61,3.89,3.89,0,0,0-1.38-1.41,1,1,0,0,0-.53-.19.45.45,0,0,0-.44.3.64.64,0,0,0,.24.55,9,9,0,0,0,1.21,1.11,4,4,0,0,0-2.71.91c-.22.18-.44.49-.28.72s.41.18.63.14a8.24,8.24,0,0,0,2.44-.85,1.59,1.59,0,0,0-.54,1.76c.13.39.56.75.93.56a1,1,0,0,0,.38-.58c.21-.63.43-1.25.64-1.88a2.52,2.52,0,0,0,.24,1.05,1.1,1.1,0,0,0,.84.61.71.71,0,0,0,.75-.62c0-.55-.68-.83-.89-1.33a2.86,2.86,0,0,0,1.84-.26c.16-.08.34-.22.34-.41S411.07,222.89,410.79,222.88Z" style="fill:#263238"></path><path d="M419.41,138.54l-1.84,40.73-11,22.68L412,221s13-25,16.62-37.08-2.09-48.7-2.09-48.7Z" style="fill:#fdb473"></path><path d="M419.85,139s-3.21-.33-4.88-2.42-3.54-3.32-4.67-5,1.47-1,2.78-.32,2.8,1.36,3.12.3-1.82-10.37-1.2-11.79,1.43,0,1.43,0-.46-2.28.39-2.7c.22-.12.92,0,1.29,1,.83,2.25,2.34,7.08,2.34,7.08-.09-.27-1.53-6.36-1.62-7.3-.13-1.23.44-1.88,1.15-1.93,1-.07,3.06,7.42,3.37,7.68,0,0-1.32-4.28-.41-5.22s1.9,1.7,2.32,4.2c.38,2.28,1.73,6.67,1.9,9,.2,2.92-.32,4.92-2.73,6.22A9.31,9.31,0,0,1,419.85,139Z" style="fill:#fdb470"></path><path d="M417.92,125.62a.12.12,0,0,1-.12-.08c-.58-1.77-1.08-3.58-1.49-5.39a.13.13,0,0,1,.09-.15.12.12,0,0,1,.15.1c.41,1.8.91,3.6,1.49,5.36a.13.13,0,0,1-.08.16Z" style="opacity:0.30000000000000004"></path><path d="M417,127.18a.17.17,0,0,1-.11-.06.14.14,0,0,1,.05-.18,12.64,12.64,0,0,1,6.94-1.79.14.14,0,0,1,.12.14.11.11,0,0,1-.13.11,12.31,12.31,0,0,0-6.81,1.76Z" style="opacity:0.30000000000000004"></path><path d="M421.72,135.36a.12.12,0,0,1-.12-.1,4.13,4.13,0,0,0-4.29-3h0a.12.12,0,0,1-.12-.12.11.11,0,0,1,.11-.13,4.34,4.34,0,0,1,2.86.79,4.46,4.46,0,0,1,1.69,2.43.12.12,0,0,1-.09.15Z" style="opacity:0.30000000000000004"></path><g style="opacity:0.30000000000000004"><path d="M421.46,255.85a52,52,0,0,0-8.24-1.29,12,12,0,0,0-1.59-.07,2.92,2.92,0,0,0,.23-.47,17,17,0,0,0,14.89-8.26,20.24,20.24,0,0,0-8.16,1.4,49.2,49.2,0,0,0-7.08,3.44,3.26,3.26,0,0,0-.63-.75,3.62,3.62,0,0,0-4.07-.41c-1.25.73-2.76,2.74-2.37,4.14l1,1.13a3,3,0,0,0,3.38,1.8,4.09,4.09,0,0,0,1.31-.5A17,17,0,0,0,429,259.39,20.12,20.12,0,0,0,421.46,255.85Z" style="fill:#3F28C0"></path></g><path d="M368.3,414.31c-1.88,3.64-5.93,7-9.74,5.51-2.74-1.09-6.08-6.18-7-9-11.35-35-14.95-52.77-1-100.48,2.26-7.73,7.59-17.77,11.11-25s4.64-16.61,6.13-25.85l36-8.46c15.27,14,21.36,35,23.58,53.87s1.05,38.13,5.3,56.62,15.57,37,33.69,42.65c3.76,1.16,8.3,2.23,9.7,5.91,1.65,4.31-2.37,8.64-6.31,11-12.45,7.59-28,9.21-42.26,6.35s-27.48-9.9-39.21-18.56c-4.51-3.33-9-6.95-14.21-8.85,0,0-7-2.36-7,2.11C367.14,404.15,371.64,407.83,368.3,414.31Z" style="fill:#263238"></path><path d="M367.79,259.5c-.48,0-3.7,20.22-6.69,27-10.55,23.87-26.19,43.27-24.27,53.43s57.79-24.35,70.46-45,5.92-32.74,5.92-32.74A43.32,43.32,0,0,0,403.82,251Z" style="fill:#3F28C0;opacity:0.30000000000000004"></path><path d="M365.13,400a120.72,120.72,0,0,1-3.72-65l1,.21a119.82,119.82,0,0,0,3.7,64.47Z" style="opacity:0.30000000000000004"></path><path d="M411.73,407.85c-12.19-11.6-20.75-28.57-24.09-47.78-2.72-15.65-2.28-33.31,1.36-54l1,.18c-3.62,20.57-4.07,38.12-1.37,53.65,3.31,19,11.76,35.77,23.8,47.22Z" style="opacity:0.30000000000000004"></path><path d="M455.47,421.69a133.3,133.3,0,0,1-62.91-93.21l1-.15A132.26,132.26,0,0,0,456,420.83Z" style="opacity:0.30000000000000004"></path></g><g id="freepik--character-2--inject-12"><path d="M292.21,426.92s-.59,8.34,5.56,10.41c3.48,1.25,12.34,4,14.13,4.54s2.27,2.07,1.54,3-31.13,4.42-31.13,4.42-2.26-2.24-1.5-7.12a47,47,0,0,0-1.12-15.42Z" style="fill:#fe8a7b"></path><polygon points="281.51 450.67 281.1 449 313.77 444.69 313.77 446.79 281.51 450.67" style="fill:#263238"></polygon><path d="M296,447.39l2.29-10.15s15.13,3.93,15.49,5.44a11.13,11.13,0,0,1,0,3.59Z" style="fill:#263238"></path><path d="M219,438.46s0,8.07-.55,9.68a6.78,6.78,0,0,0,.61,6.18h18.81s1-1.83-1.64-4.3-6.23-6-6.48-8.08a66.11,66.11,0,0,1,.57-10.14Z" style="fill:#fe8a7b"></path><path d="M219.05,454.32s2.27-5.94,8.17-6.64,8.32,1.73,10.44,4.18.2,2.46.2,2.46Z" style="fill:#263238"></path><path d="M291.09,347.63c-3.51-17.36-20.54-81.15-20.54-81.15l-22.3.71-36.65-.33s-6,55.31-5.94,86c0,0-5.49,66.07,8.92,79.65,1.75,1.65.46,4.72.62,6.74l16.33,0c3.11-18.65,7.15-79.32,7.15-79.32,1.24-11.24,2.73-45,3.61-54.49.37-2.09.73-4.21,1.08-6.31,3.5,10.27,15.39,53.76,16.86,60.13,7.64,33.16,15.35,55.9,18,67.68l.28,3.57L294,429a5.06,5.06,0,0,1,.08-5.74C310.41,401.13,293.29,358.53,291.09,347.63Z" style="fill:#263238"></path><g style="opacity:0.2"><path d="M266.73,344.69a9.17,9.17,0,0,0,8.3,4.23,7.71,7.71,0,0,0,6.66-6.33c.8-5.33-4.18-11.11-1.46-15.69,1.12-1.91,3.06-2.68,5.18-3.24-2.72-10.85-5.89-23.1-8.6-33.47-2.85.65-5.71,1.22-7.18,3.71-2.72,4.59,2.25,10.36,1.46,15.7a7.73,7.73,0,0,1-6.67,6.33,9.21,9.21,0,0,1-8.3-4.23c-2-2.91-2.94-7.14-6.2-8.1a5.53,5.53,0,0,0-4.77,1.14c2.54,8.41,6.4,22.16,9.6,33.85,1.55-1.54,3.73-2.59,5.77-2C263.79,337.56,264.77,341.78,266.73,344.69Z" style="fill:#3F28C0"></path></g><g style="opacity:0.2"><path d="M231.06,317.13a8.72,8.72,0,0,1-9.2-4.8c-1.09-2.54-.77-5.46-1.09-8.22s-1.76-5.83-4.37-6.24c-1.88-.29-3.64.9-5.45,1.49a8.56,8.56,0,0,1-2.48.43c-.6,7.19-1.19,15-1.68,22.66,2,6.49,8.58,11.95,14.77,9.91,1.81-.59,3.56-1.78,5.44-1.49,2.62.41,4.05,3.48,4.37,6.24s0,5.68,1.1,8.22a8.47,8.47,0,0,0,7,4.82c.93-13.21,1.88-32.68,2.57-41.95-.64,1-1.26,1.94-1.95,2.87C237.87,314.12,234.7,316.61,231.06,317.13Z" style="fill:#3F28C0"></path></g><g style="opacity:0.30000000000000004"><path d="M249.92,303.6c3.26,1,4.25,5.19,6.2,8.1a9.21,9.21,0,0,0,8.3,4.23,7.73,7.73,0,0,0,6.67-6.33c.79-5.34-4.18-11.11-1.46-15.7,1.47-2.49,4.33-3.06,7.18-3.71-3.51-13.43-6.26-23.71-6.26-23.71l-22.3.71-36.65-.33s-1.59,14.58-3.13,32.93a8.56,8.56,0,0,0,2.48-.43c1.81-.59,3.57-1.78,5.45-1.49,2.61.41,4,3.48,4.37,6.24s0,5.68,1.09,8.22a8.72,8.72,0,0,0,9.2,4.8c3.64-.52,6.81-3,9.05-6.06.69-.93,1.31-1.91,1.95-2.87.08-1.06.16-2,.23-2.78.37-2.09.73-4.21,1.08-6.31.46,1.35,1.07,3.29,1.78,5.63A5.53,5.53,0,0,1,249.92,303.6Z" style="fill:#3F28C0"></path></g><g style="opacity:0.2"><path d="M219.81,408c-.66-4.62-5.71-7.71-5.85-12.38-.09-2.88,1.75-5.41,3.76-7.37s4.33-3.67,5.7-6.16,1.44-6.11-.75-7.84c-2.46-1.94-6.32-.56-8.76-2.53-1.82-1.47-2.1-4.26-1.73-6.65s1.21-4.73,1.06-7.14a8.44,8.44,0,0,0-7.57-7.7c0,.89,0,1.77,0,2.63,0,0-3.48,41.87,2.37,65.8a17.93,17.93,0,0,0,6.4-1.66C217.68,415.37,220.34,411.77,219.81,408Z" style="fill:#3F28C0"></path></g><g style="opacity:0.30000000000000004"><path d="M286.29,353.45c-1.43,2.91-.67,6.4-.31,9.65s-.07,7.16-2.78,8.76c-4.89,2.89-10.6-4.76-16-3.05a6.33,6.33,0,0,0-3.77,3.89c1.84,7.38,3.65,14.14,5.35,20.26a12,12,0,0,0,9.89,2.61c2.2-.49,4.21-1.69,6.39-2.26s4.83-.3,6.2,1.58c1.7,2.35.56,5.71.93,8.63.5,3.82,3.72,6.51,7.36,7.45,5.39-22.13-5.79-52-8.26-62.25C289.35,350,287.34,351.32,286.29,353.45Z" style="fill:#3F28C0"></path></g><path d="M311.08,176.42c-.05.43-15.29,33.22-15.29,33.22l-19.23-16.78s-7.74,16.83-7.26,16.85,26.22,25.58,34.3,16.21,16.73-44.54,16.73-44.54Z" style="fill:#fe8a7b"></path><path d="M316.76,170.11c-.43-4.13-1.54-4.65-2.2-5.33s-1.14-1-1.28-1.91-.94-4.73-1.16-6-1-3-.91-3.67c0,0,0-.08,0-.12a3.15,3.15,0,0,0-2-.11l-.38.13a2.26,2.26,0,0,1-1,.18l-.45,0a2.65,2.65,0,0,0-.93,0,1.9,1.9,0,0,0-.54.2,3.24,3.24,0,0,0,.14.39c.24.62-.08,2.53,0,3.78s.23,5.17.3,6.07a3.36,3.36,0,0,1-.79,2.17c-.48.81-1.43,1.58-.86,5.69s1.76,13.26,1.76,13.26a12,12,0,0,0,.18,1.32,3.84,3.84,0,0,0,1.27,2.4,2.8,2.8,0,0,0,2,.37l2.92-.34,2.92-.37a3,3,0,0,0,1.77-.73c1.11-1.14.76-2.78.61-4.07C318.23,183.4,317.19,174.24,316.76,170.11Z" style="fill:#3F28C0"></path><rect x="305.76" y="152.59" width="5.72" height="1.6" rx="0.72" transform="translate(-16.03 37.73) rotate(-6.82)" style="fill:#3F28C0"></rect><g style="isolation:isolate;opacity:0.5"><path d="M316.76,170.11c-.43-4.13-1.54-4.65-2.2-5.33s-1.14-1-1.28-1.91-.94-4.73-1.16-6-1-3-.91-3.67c0,0,0-.08,0-.12a3.15,3.15,0,0,0-2-.11l-.38.13a2.26,2.26,0,0,1-1,.18l-.45,0a2.65,2.65,0,0,0-.93,0,1.9,1.9,0,0,0-.54.2,3.24,3.24,0,0,0,.14.39c.24.62-.08,2.53,0,3.78s.23,5.17.3,6.07a3.36,3.36,0,0,1-.79,2.17c-.48.81-1.43,1.58-.86,5.69s1.76,13.26,1.76,13.26a12,12,0,0,0,.18,1.32,3.84,3.84,0,0,0,1.27,2.4,2.8,2.8,0,0,0,2,.37l2.92-.34,2.92-.37a3,3,0,0,0,1.77-.73c1.11-1.14.76-2.78.61-4.07C318.23,183.4,317.19,174.24,316.76,170.11Z" style="fill:#fff"></path><rect x="305.76" y="152.59" width="5.72" height="1.6" rx="0.72" transform="translate(-16.03 37.73) rotate(-6.82)" style="fill:#fff"></rect></g><g style="isolation:isolate;opacity:0.4"><path d="M313.78,165.59l-.24-.24a3.6,3.6,0,0,1-1.26-2.09c-.07-.46-.34-1.8-.6-3.1v0c-.22-1.11-.45-2.25-.55-2.83,0-.2-.39-2.9-.45-3.12l-3.57.43c0,.23.07,3,.09,3.17,0,.59.09,1.75.14,2.87v0c.06,1.32.12,2.68.16,3.15a3.56,3.56,0,0,1-.72,2.33l-.18.29c-.06.11-.13.22-.2.33-.43.64-1,1.53-.55,4.88.2,1.47.41,3,.6,4.43.34,2.61.71,5.22,1,7.83a4.42,4.42,0,0,0,1,2.93c.77.76,2.35.51,3.39.4s2.32-.27,3.45-.52a3.27,3.27,0,0,0,1.56-.73c.7-.67.34-2.19.25-3-.21-2-.44-3.9-.66-5.85-.24-2.24-.5-4.49-.73-6.74-.35-3.36-1.13-4.08-1.7-4.6Z" style="fill:#fff"></path></g><rect x="307.63" y="170.18" width="7.95" height="13.5" rx="3.58" transform="translate(-18.81 38.26) rotate(-6.82)" style="fill:#3F28C0"></rect><path d="M320.52,169.59c-1.09-1.81-3.28-3-6.69-1.28,0,0-6.08,2.8-6.88,4.72s2.16,1.66,2.16,1.66-3.24.49-3.22,1.9c0,1.69,3.13,1.4,3.13,1.4s-2.63.51-2.53,1.75,3.63,1.22,3.63,1.22-1.78.71-1.22,1.54,8.05.8,10.2-.68S321.63,171.42,320.52,169.59Z" style="fill:#fe8a7b"></path><path d="M309.12,174.85h0l5.61-1.13a.14.14,0,0,0,.11-.18.15.15,0,0,0-.16-.13l-5.62,1.13a.16.16,0,0,0-.11.18C309,174.8,309.05,174.86,309.12,174.85Z" style="opacity:0.2"></path><path d="M309.19,178.13h0l5.48-.65a.16.16,0,0,0,.12-.18.16.16,0,0,0-.16-.14l-5.48.66a.14.14,0,0,0-.12.17A.15.15,0,0,0,309.19,178.13Z" style="opacity:0.2"></path><path d="M310.33,181.1l4.08-.37c.08,0,.13-.08.13-.17a.15.15,0,0,0-.16-.14l-4.08.37c-.08,0-.13.08-.13.17A.15.15,0,0,0,310.33,181.1Z" style="opacity:0.2"></path><path d="M179.19,166.22S184.71,134,184.93,134l-8.87-2.71s-15.77,38.11-11.36,44.69,43.78,24.28,43.78,24.28l6.91-16.7Z" style="fill:#fe8a7b"></path><path d="M184.93,134.83s7.39-3.54,7.74-5.27a6.1,6.1,0,0,0-.2-3.14s7.16-11.72,5.34-12.53c-1-.45-3.22,2.14-6.53,7.73,0,0,4.68-10.22,1.34-11-.57-.12-3.72,8.52-4.4,9a2.42,2.42,0,0,0-3.46-1.17s-2.08-1.13-3.44.23-5.16,7.79-5.78,11.55,6.67,6.06,6.67,6.06Z" style="fill:#fe8a7b"></path><path d="M182.67,130.88h0a.26.26,0,0,1-.25-.26,2.69,2.69,0,0,1,1-1.75,3.64,3.64,0,0,0,.78-1.1c.27-.73,2.42-1.12,3.63-1.24-.91-1.25-1.4-3.48-.69-4.68a1.37,1.37,0,0,1,1.9-.69c.4.16.74.73,1.1,1.39l.19.33c.34.56.81,1.27,1.27,2s.94,1.41,1.28,2a.24.24,0,0,1-.08.34.24.24,0,0,1-.34-.08c-.34-.55-.82-1.26-1.27-2s-.94-1.4-1.29-2c0-.1-.12-.22-.2-.36-.2-.37-.58-1.06-.84-1.16-.6-.24-.94-.11-1.29.48-.67,1.13,0,3.47.95,4.46a.23.23,0,0,1,.05.26.22.22,0,0,1-.22.16c-1.55.07-3.54.59-3.68,1a4,4,0,0,1-.89,1.27,2.29,2.29,0,0,0-.81,1.42A.25.25,0,0,1,182.67,130.88Z" style="opacity:0.30000000000000004"></path><path d="M185.26,125.06a1.81,1.81,0,0,1-.64-.12,2.34,2.34,0,0,1-1.38-1.85,2.38,2.38,0,0,1,0-.46,3.37,3.37,0,0,1-.95.66,1.84,1.84,0,0,1-2.18-.27,1.62,1.62,0,0,1-.25-1.44,4.3,4.3,0,0,1,.61-1.21.24.24,0,0,1,.34-.07.24.24,0,0,1,.08.34,3.85,3.85,0,0,0-.54,1.07,1.1,1.1,0,0,0,.15,1,1.35,1.35,0,0,0,1.58.14,3,3,0,0,0,1.32-1.24,6.64,6.64,0,0,1,.3-.76.25.25,0,0,1,.31-.12.25.25,0,0,1,.16.3,3.42,3.42,0,0,1-.3.77,2.88,2.88,0,0,0-.1,1.22,1.87,1.87,0,0,0,1.07,1.47,1.27,1.27,0,0,0,1.55-.52.25.25,0,0,1,.34-.11.25.25,0,0,1,.11.33A1.7,1.7,0,0,1,185.26,125.06Z" style="opacity:0.30000000000000004"></path><path d="M179.19,166.22s-1.13,2.22-4.88,1.82l5.3-4.26Z" style="opacity:0.2"></path><path d="M255.44,178.8c-5.34,5.89-4.28,19.68,20.91,43.41l12-19.52c-5.46-6.23-9.65-9-17.32-16.14C259,175.48,255.44,178.8,255.44,178.8Z" style="fill:#3F28C0"></path><path d="M255.1,177.9c-2.24-.1-7.47-.61-14.4-.62a167.23,167.23,0,0,0-31.86,2.95l2,73.14a125.38,125.38,0,0,1-1.39,18.47c21.61,7.33,47.87,5.43,61.84-2.62,1.09.31-2-9.19-3.16-19.84-2.15-20.4-5.35-52.22-8.76-70.55C259.31,178.38,255.61,177.92,255.1,177.9Z" style="fill:#3F28C0"></path><path d="M224.94,177.86h-16.1c-8.76-4-21.66-8.49-21.66-8.49l-9.66,20.42,33,14Z" style="fill:#3F28C0"></path><path d="M224.94,177.86s17.59,23.3,17.54,22.36l6.18-22.9C240.41,177.17,232.12,176.61,224.94,177.86Z" style="fill:#fe8a7b"></path><path d="M209.48,203.31a2.54,2.54,0,0,0,1.37-.53,11.29,11.29,0,0,0,3.35-4s.6,6.07-4.59,9.41Z" style="opacity:0.2"></path><path d="M263.79,208.78s-2.57-13.54-2-13.46,5.27,13.62,4.89,17Z" style="opacity:0.2"></path><path d="M244,216a15.77,15.77,0,1,0,16.88,14.58A15.8,15.8,0,0,0,244,216Zm14.77,14.73a13.57,13.57,0,0,1-1.89,8l-10.45-7.46-1.21-13.17A13.67,13.67,0,0,1,258.77,230.73Zm-13.15,14.64a13.65,13.65,0,0,1-8.39-2.52l7.41-8.07Zm-14.09-12.64a13.66,13.66,0,0,1,11.58-14.49l1.27,13.7-8.76,9.55A13.56,13.56,0,0,1,231.53,232.73Zm16.19,12.41-1-11.11,9,6.4A13.63,13.63,0,0,1,247.72,245.14Z" style="opacity:0.2"></path><path d="M244.19,150.34c3.78-4,10.16-5.41,8.18-11.18-2.71-7.87-17.68-15.48-28.54-2.49-4.78.31-6.68,6.47-5.52,14.37s3.61,9.18,1.75,12.75l-.06.13a5.51,5.51,0,0,0,3,7.73c11.09,4,21.93,6.77,23.19-5.57C247.47,154.13,243.43,151.12,244.19,150.34Z" style="fill:#263238"></path><path d="M253.84,167.26a17.52,17.52,0,0,1-5.49-5.28l-6.24,10.13a2.56,2.56,0,0,0,3.11-2.76,7,7,0,0,0,8.83-.69,1,1,0,0,0,.37-.79A1,1,0,0,0,253.84,167.26Z" style="fill:#263238"></path><g style="opacity:0.2"><path d="M247.06,168a9.09,9.09,0,0,1-5.69,2.09l.36,1a7.26,7.26,0,0,0,5.85-2.3,13.25,13.25,0,0,0,2.89-4.19A13.82,13.82,0,0,1,247.06,168Z"></path></g><path d="M216.65,145.53a38.14,38.14,0,0,0,.23,8.2,9.8,9.8,0,0,1-1.53,6.72c-.39.6-.88,1.14-1.24,1.75a2.73,2.73,0,0,0-.4,2.05,3.38,3.38,0,0,0,1.82,1.82,6.32,6.32,0,0,0,2.33.79,2.72,2.72,0,0,0,2.26-.79l5.66-31.47C218.55,135.41,217,143.07,216.65,145.53Z" style="fill:#263238"></path><path d="M230.46,177.14s.44-5.95-3.68-15.94c0,0,.52-.31.52-.33-.57-1.39-1.16-2.68-1.7-3.79a.16.16,0,0,1,0,0l15.07,7.18c0,3.34,1.91,9.58,2.91,12.2,0,0,2.31,4.68-4.15,5.6C234.7,182.7,230.46,177.14,230.46,177.14Z" style="fill:#fe8a7b"></path><path d="M241.41,168.83l-8.33-.94c1,2.44,3.58,5.19,9.26,4.82A25.09,25.09,0,0,1,241.41,168.83Z" style="opacity:0.2"></path><path d="M247.75,138.76c2,3.09,3.39,10.2-2,9.28S244.28,133.46,247.75,138.76Z" style="fill:#263238"></path><path d="M224.73,150.19c1.93,8.85,2.84,13.87,8.06,17.72,7.86,5.78,18,.12,18.78-9.15.67-8.34-2.59-21.41-11.89-23.52A12.49,12.49,0,0,0,224.73,150.19Z" style="fill:#fe8a7b"></path><path d="M229.69,151.79c.09,1.47,3.52,5,5.05,4.65,3-.75,9.11-.13,10.34,1,2.47-1,6.59-1.28,6.7.1s.35,13.05-11.67,12.88c-16.6-.23-12.64-17.77-12.64-17.77Z" style="fill:#263238"></path><path d="M222.36,158.18a8.43,8.43,0,0,0,5,4.27c2.87.92,4.43-1.64,3.74-4.41-.62-2.5-2.85-6-5.79-5.69S221.13,155.68,222.36,158.18Z" style="fill:#fe8a7b"></path><path d="M237.91,150.79c.14.92.74,1.58,1.34,1.48s1-.92.83-1.83-.74-1.58-1.34-1.48S237.77,149.88,237.91,150.79Z" style="fill:#263238"></path><path d="M246.9,149.58c.14.92.74,1.58,1.34,1.48s1-.92.83-1.83-.74-1.58-1.34-1.48S246.76,148.67,246.9,149.58Z" style="fill:#263238"></path><path d="M243.91,149.53s3.59,4.09,4.81,5.8c-1.1,1.34-3.37,1.15-3.37,1.15Z" style="fill:#dd5753"></path><path d="M235,146.83a.44.44,0,0,0,.42-.13,3.46,3.46,0,0,1,2.92-1.15.44.44,0,0,0,.16-.86,4.36,4.36,0,0,0-3.71,1.43.44.44,0,0,0,0,.61A.5.5,0,0,0,235,146.83Z" style="fill:#263238"></path><path d="M228.5,157.69a.25.25,0,0,1-.24-.18,4.2,4.2,0,0,0-1.1-1.9,2.66,2.66,0,0,0-1.54-.81,1.4,1.4,0,0,0-1.38.7.25.25,0,0,1-.45-.21,1.88,1.88,0,0,1,1.87-1,3.16,3.16,0,0,1,1.86,1,4.79,4.79,0,0,1,1.23,2.11.26.26,0,0,1-.18.31Z" style="opacity:0.2"></path><path d="M236.59,157.56l8.08,1.89a11.16,11.16,0,0,1-1.36,2.58,3.4,3.4,0,0,1-2.38,1.28,3.52,3.52,0,0,1-3.48-1.7A8,8,0,0,1,236.59,157.56Z"></path><path d="M244,159.3s-.44,1-.91,1.22-6.46-1.5-6.46-1.5l-.06-1.46Z" style="fill:#fff"></path><path d="M241.91,163.07a3.41,3.41,0,0,0-2.21-1.82,3.54,3.54,0,0,0-2.47-.07,3.64,3.64,0,0,0,2.21,2A3.39,3.39,0,0,0,241.91,163.07Z" style="fill:#dd5753"></path><path d="M250.26,145.12a.45.45,0,0,0,.2-.16.43.43,0,0,0-.1-.6,4.26,4.26,0,0,0-3.88-.65.43.43,0,0,0,.31.81,3.3,3.3,0,0,1,3.07.54A.42.42,0,0,0,250.26,145.12Z" style="fill:#263238"></path><path d="M225.44,152.62c5.62,2.31,8.89-5,7.25-8.53,1.9,1,9.37-1,8.81-5.46.9,3.05,9.95,5.9,7.55.7s-2.49-8.25-10.87-6.82-8.87,3.37-14,5.56S222,151.2,225.44,152.62Z" style="fill:#263238"></path><path d="M224.15,127.75a6.34,6.34,0,0,0-8,1.29,3.7,3.7,0,0,0-.79,3.66c.67,1.52,2.6,2,4.25,1.92a7.67,7.67,0,0,0-3.87,1.32c-.29.2-.6.47-.58.83,0,.57.81.71,1.38.67a25.5,25.5,0,0,0,10-2.89l-.16,1A6.33,6.33,0,0,0,224.15,127.75Z" style="fill:#263238"></path></g><g id="freepik--character-1--inject-12"><path d="M112.52,198.57s7.35.44,9.93,4.61c2.19,3.52,15.64,31.62,15.64,31.62l25-7.61,4.64,7.13s-25.62,18.93-32.69,18.05S122,231,121.15,231,112.52,198.57,112.52,198.57Z" style="fill:#ebc0bb"></path><path d="M157.84,233s-1-2.35.93-5.79,3.85-6.65,4.34-8.19.6-3.52,1.44-2.89,1.95,1.24,1.71,3.24-.54,4.16-.54,4.16,4.19-2.23,5.74-1.52.27,2.88.27,2.88,1.4.15.83,1.91a1.74,1.74,0,0,1,.75,2.27,11.27,11.27,0,0,1-2.05,2.91c-1.43,1.48-3.14,3.81-5.47,4.66a24.16,24.16,0,0,0-3.47,1.51Z" style="fill:#ebc0bb"></path><path d="M177.32,220.59c-.43-4.13-1.54-4.66-2.2-5.33s-1.14-1-1.28-1.92-.94-4.72-1.16-6-1-3-.91-3.67c0,0,0-.08,0-.12a3.15,3.15,0,0,0-1.95-.11l-.38.13a2.26,2.26,0,0,1-1,.18l-.45,0a2.9,2.9,0,0,0-.93,0,1.9,1.9,0,0,0-.54.2c0,.1.08.23.14.39.24.62-.08,2.53,0,3.78s.23,5.17.3,6.07a3.35,3.35,0,0,1-.78,2.17c-.48.81-1.44,1.58-.87,5.69s1.76,13.26,1.76,13.26a10,10,0,0,0,.19,1.32,3.81,3.81,0,0,0,1.26,2.4,2.86,2.86,0,0,0,2,.37l2.92-.34,2.92-.37a3,3,0,0,0,1.77-.73c1.11-1.14.76-2.78.61-4.07C178.79,233.88,177.75,224.71,177.32,220.59Z" style="fill:#3F28C0"></path><rect x="166.32" y="203.07" width="5.72" height="1.6" rx="0.72" transform="translate(-23.01 21.53) rotate(-6.82)" style="fill:#3F28C0"></rect><g style="isolation:isolate;opacity:0.5"><path d="M177.32,220.59c-.43-4.13-1.54-4.66-2.2-5.33s-1.14-1-1.28-1.92-.94-4.72-1.16-6-1-3-.91-3.67c0,0,0-.08,0-.12a3.15,3.15,0,0,0-1.95-.11l-.38.13a2.26,2.26,0,0,1-1,.18l-.45,0a2.9,2.9,0,0,0-.93,0,1.9,1.9,0,0,0-.54.2c0,.1.08.23.14.39.24.62-.08,2.53,0,3.78s.23,5.17.3,6.07a3.35,3.35,0,0,1-.78,2.17c-.48.81-1.44,1.58-.87,5.69s1.76,13.26,1.76,13.26a10,10,0,0,0,.19,1.32,3.81,3.81,0,0,0,1.26,2.4,2.86,2.86,0,0,0,2,.37l2.92-.34,2.92-.37a3,3,0,0,0,1.77-.73c1.11-1.14.76-2.78.61-4.07C178.79,233.88,177.75,224.71,177.32,220.59Z" style="fill:#fff"></path><rect x="166.32" y="203.07" width="5.72" height="1.6" rx="0.72" transform="translate(-23.01 21.53) rotate(-6.82)" style="fill:#fff"></rect></g><g style="isolation:isolate;opacity:0.4"><path d="M174.34,216.07a2.72,2.72,0,0,0-.24-.24,3.6,3.6,0,0,1-1.26-2.09c-.07-.46-.34-1.8-.6-3.1v0c-.22-1.1-.45-2.24-.55-2.82,0-.2-.39-2.9-.45-3.12l-3.57.43c0,.23.07,3,.09,3.16,0,.59.09,1.76.14,2.88v0c.06,1.32.12,2.68.16,3.15a3.58,3.58,0,0,1-.72,2.33l-.17.29-.21.33c-.43.64-1,1.53-.55,4.88.2,1.47.41,2.95.6,4.43.34,2.61.71,5.21,1,7.83a4.39,4.39,0,0,0,1,2.93c.76.76,2.34.51,3.38.39a33.35,33.35,0,0,0,3.45-.51,3.4,3.4,0,0,0,1.57-.73c.69-.67.33-2.19.24-3-.21-1.95-.44-3.9-.65-5.85q-.37-3.36-.74-6.74c-.35-3.36-1.13-4.08-1.7-4.6Z" style="fill:#fff"></path></g><rect x="168.19" y="220.66" width="7.95" height="13.5" rx="3.58" transform="translate(-25.77 22.03) rotate(-6.81)" style="fill:#3F28C0"></rect><path d="M179.3,225.75,178,220.2a14.72,14.72,0,0,0-3.16,2.84,3.31,3.31,0,0,0-.66,1.11,1.29,1.29,0,0,0,.22,1.22.9.9,0,0,0,1.23.2,2.69,2.69,0,0,0,.43-.24,7.51,7.51,0,0,0-1.33,1.79,2.88,2.88,0,0,0-.38,1.17,1.15,1.15,0,0,0,1.69,1.17,2.67,2.67,0,0,0,.51-.31,4.36,4.36,0,0,0-1.06,1.33,2.16,2.16,0,0,0-.21.71.9.9,0,0,0,1.43.83,11.72,11.72,0,0,0,2.59-2.5C180.45,227.87,179.3,225.75,179.3,225.75Z" style="fill:#ebc0bb"></path><path d="M144.35,343.73c-7.73-5-18.81-5.89-29-5.44a141.56,141.56,0,0,0-40.2,7.61L50.6,353.67c10.26,6.7,24.69,9.62,38,7.7,11-1.59,21.4-6.28,32.6-5.76,3.6.16,7.11.86,10.67,1.28a27.45,27.45,0,0,0,10.67-.47c3.36-1,6.24-3.28,6.44-6S147,345.44,144.35,343.73Z" style="fill:#3F28C0"></path><g style="opacity:0.4"><path d="M144.35,343.73c-7.73-5-18.81-5.89-29-5.44a141.56,141.56,0,0,0-40.2,7.61L50.6,353.67c10.26,6.7,24.69,9.62,38,7.7,11-1.59,21.4-6.28,32.6-5.76,3.6.16,7.11.86,10.67,1.28a27.45,27.45,0,0,0,10.67-.47c3.36-1,6.24-3.28,6.44-6S147,345.44,144.35,343.73Z"></path></g><polygon points="78.77 234.6 75.73 212.29 90.52 220.78 85.75 236.15 78.77 234.6" style="fill:#263238"></polygon><polygon points="103.97 302.09 111.1 282.49 106.79 309.94 103.97 302.09" style="isolation:isolate;opacity:0.2"></polygon><path d="M111.23,264s-10,51.78-15.79,79.56C89.36,372.65,81.33,421.63,83,441c-1.63,1-4.65,1.09-8,0,0,0-13-65,.09-96.22-13.27-56,5.23-84.23,5.23-84.23Z" style="fill:#ebc0bb"></path><polygon points="71.08 359.67 93.38 353.8 94.79 346.59 71.82 354.67 71.08 359.67" style="opacity:0.30000000000000004"></polygon><path d="M82.8,433.85s0,8.33,5.28,11.21c2.81,1.44,10.76,3.49,12.21,4.18s1.7,2,1,2.69-26.8.32-26.8.32-1.67-2.14-.49-6.19a27.61,27.61,0,0,0-.18-12.21Z" style="fill:#ebc0bb"></path><path d="M113.06,198.57s3.24,26.9-2.46,34.75l.19.82a70,70,0,0,1,1.49,22l-2,21.69s6,6.17,20.34,2,.89-53.53-4-63.87A91.27,91.27,0,0,0,116,198.57S114.21,197.21,113.06,198.57Z" style="fill:#263238"></path><path d="M125.11,273.67S151,347.75,146,355.07c-15.42,26.74-35.73,54.15-39.42,62.45-.89,1.24-5.59-1.29-6.31-2.82a38.74,38.74,0,0,1,1.69-9.6c11.36-39.75,5.34-35,24.11-61.29-15.94-22.2-27.67-56.07-27.67-56.07Z" style="fill:#ebc0bb"></path><path d="M112,408.21s-4.51,6-.42,9.68c2.28,2.17,8.26,7.33,9.45,8.4s1.07,2.39.18,2.86-25.8-7.25-25.8-7.25-1-2.53,1.27-6.07A111.93,111.93,0,0,0,102,405.49Z" style="fill:#ebc0bb"></path><path d="M124.85,345.53c0-.06,9.55,13.66,19.55,12.28l2.71-3.86-24.82-15.57,3.78,5.43Z" style="opacity:0.4"></path><path d="M79.39,224.5l-4.87-22.13c3.81-3,15.93-4,16.1-4.23l22.44.43,4.3,8.4s5.62,9,6.17,15c.51,5.57-2.36,20.69-1.52,27.56l.78,7.64c-21.69,15.91-43.87,14.59-43.87,14.59,1-2.89,6.54-12.07,7-14.91-.2-3.65,1.51-6.35-.74-13.92C83.54,237.22,79.37,225.3,79.39,224.5Z" style="fill:#3F28C0"></path><path d="M149.57,340.35c-9-27.68-25.19-79.11-27.06-108.15L82.92,258.52c-18,10.92-20.81,33.41-21.28,40.71s-.2,14.69-1.66,21.86-5,29.61-11.21,33.43c14.52,9.32,33.31-3.59,49.69-9,4.71-1.56,9.23-3.73,14.07-4.87s10.19-1.16,14.45,1.4c3.8,2.28,6.21,6.27,9.52,9.22s8.67,4.68,12,1.79S151,344.64,149.57,340.35Z" style="fill:#3F28C0"></path><g style="opacity:0.30000000000000004"><path d="M135.06,292.89a6.66,6.66,0,0,0-.8.71c-1.61,1.71-2.25,4.15-3.78,5.94-2.27,2.63-6.19,3.35-9.58,2.61s-6.38-2.71-9.19-4.75a16.48,16.48,0,0,0-5.65-3.13c-2.1-.5-4.65.11-5.71,2-1.58,2.79.82,6.28.23,9.43-.63,3.38-4.39,5.15-7.76,5.82A31.62,31.62,0,0,1,61.6,299.88c-.37,6.28-.25,12.62-1.2,18.82A31.66,31.66,0,0,0,92.82,332c3.37-.68,7.13-2.45,7.76-5.83.59-3.15-1.81-6.64-.23-9.42,1.06-1.89,3.61-2.49,5.71-2a16.62,16.62,0,0,1,5.65,3.12c2.81,2,5.79,4,9.19,4.75s7.31,0,9.58-2.61c1.53-1.78,2.17-4.23,3.78-5.94a8.81,8.81,0,0,1,6.26-2.46C138.69,305.58,136.84,299.27,135.06,292.89Z"></path></g><g style="opacity:0.30000000000000004"><path d="M90.14,273c3.37.45,7.26.39,8.34-1.32s-.83-4.11,1.08-5.27c1.3-.78,3.85-.49,5.82.3a22.08,22.08,0,0,1,5,3.1,35.08,35.08,0,0,0,8.25,4.87c3.19,1.24,7.09,1.8,9.66.9a8.9,8.9,0,0,0,1.87-1c-.84-3.34-1.63-6.65-2.37-9.9a19.58,19.58,0,0,1-6.31-1.33,35.22,35.22,0,0,1-8.25-4.87,22.32,22.32,0,0,0-5-3.11c-2-.79-4.52-1.07-5.82-.29-1.91,1.15-.07,3.66-1.08,5.26s-5,1.77-8.34,1.32A54.57,54.57,0,0,1,82.1,259a38.14,38.14,0,0,0-9.36,8.53A54.68,54.68,0,0,0,90.14,273Z"></path></g><g style="opacity:0.30000000000000004"><path d="M87.73,348.82a1.77,1.77,0,0,0-.87,1.25l3.91-1.65A5.09,5.09,0,0,0,87.73,348.82Z"></path></g><g style="opacity:0.30000000000000004"><path d="M75,354.84a54.05,54.05,0,0,1-15.59-5.64,40.46,40.46,0,0,1-5.26-3.52c-1.51,4.19-3.29,7.56-5.38,8.84C56.62,359.56,65.71,358.1,75,354.84Z"></path></g><path d="M87.58,203.37s3,30.45-5.24,35.56l-.13.83a70.29,70.29,0,0,1-7,21L65.2,280s3.26,8,18,9.59,20.58-50.82,20-62.23S94,203.13,94,203.13C91.47,202.74,89.27,202.06,87.58,203.37Z" style="opacity:0.30000000000000004"></path><path d="M101.2,289.44a97.48,97.48,0,0,0,3.62,42.75c.14.46.87.26.72-.2a96.42,96.42,0,0,1-3.61-42.35c.06-.47-.66-.67-.73-.2Z" style="opacity:0.30000000000000004"></path><path d="M106.94,292.89c-.73,5.46.85,11.28,2.42,16.46a116.5,116.5,0,0,0,7.77,19.16,74.72,74.72,0,0,0,5.06,8.64c.27.4.92,0,.65-.37a90.83,90.83,0,0,1-8.64-16.34,91.92,91.92,0,0,1-6-18.87,27.84,27.84,0,0,1-.5-8.68c.06-.48-.69-.47-.75,0Z" style="opacity:0.30000000000000004"></path><path d="M135.07,177c.92-1.5.24-3.66-1.08-4.86a9.41,9.41,0,0,0-4.77-2c-1.7-.32,0-2.16-2.07-4.52-4.58-5.15-8.63,1.28-9.63-1s.59-5.08-.89-8.8c-1.35-3.38-5.42-4.57-8.89-5s-8.24,1.48-11.13,3.44c-4.12-1.2-6.69-.47-9.84,2.46-3.54,3.28-.64,7.73-.53,8.1.62,2.12-6,2.08-5,10.78.24,2.2,2.8,5.83,1.66,7.65S79.61,186,79,188c-.73,2.21.86,4.73,2.91,5.75s4.39.93,6.63.81a3.37,3.37,0,0,0,.72,3.09,6.05,6.05,0,0,0,2.68,1.75,11,11,0,0,0,11.46-2.63c.46-.47.94-1,1.58-1.06a2.82,2.82,0,0,1,1.44.51c3.27,1.74,7.27,1.21,10.49-.47s5.85-4.37,8.41-7a10.67,10.67,0,0,0,10-4.3,7.08,7.08,0,0,0,1.47-3.8A4.21,4.21,0,0,0,135.07,177Z" style="fill:#263238"></path><g style="opacity:0.7000000000000001"><path d="M135.07,177c.92-1.5.24-3.66-1.08-4.86a9.41,9.41,0,0,0-4.77-2c-1.7-.32,0-2.16-2.07-4.52-4.58-5.15-8.63,1.28-9.63-1s.59-5.08-.89-8.8c-1.35-3.38-5.42-4.57-8.89-5s-8.24,1.48-11.13,3.44c-4.12-1.2-6.69-.47-9.84,2.46-3.54,3.28-.64,7.73-.53,8.1.62,2.12-6,2.08-5,10.78.24,2.2,2.8,5.83,1.66,7.65S79.61,186,79,188c-.73,2.21.86,4.73,2.91,5.75s4.39.93,6.63.81a3.37,3.37,0,0,0,.72,3.09,6.05,6.05,0,0,0,2.68,1.75,11,11,0,0,0,11.46-2.63c.46-.47.94-1,1.58-1.06a2.82,2.82,0,0,1,1.44.51c3.27,1.74,7.27,1.21,10.49-.47s5.85-4.37,8.41-7a10.67,10.67,0,0,0,10-4.3,7.08,7.08,0,0,0,1.47-3.8A4.21,4.21,0,0,0,135.07,177Z" style="fill:#fff"></path></g><path d="M90.52,198.6a42.36,42.36,0,0,1,8,5.6,16,16,0,0,0,3,2.06c2.91,1.55,5.57,2.43,6.29,1a4.78,4.78,0,0,0,.37-1c.61-2.35.36-5.65-1.54-7.16-2.14-1.71-3.18-3.17-2.79-5.48a17.59,17.59,0,0,1,1.23-4l-2.47-1.48-8.82-8.9C94.87,184.76,95.17,195.37,90.52,198.6Z" style="fill:#ebc0bb"></path><path d="M103.85,194.16c-2.43-1.44-5.09-3.93-4.77-6.79a13.14,13.14,0,0,1,.69-3.07l4.93,6.52A15.9,15.9,0,0,0,103.85,194.16Z" style="opacity:0.2"></path><path d="M92.15,169.27c.83,9.06,1,12.9,5.67,17.65,7,7.14,17.85,4.74,19.71-4.24,1.67-8.08,0-21.54-8.86-25.34A11.65,11.65,0,0,0,92.15,169.27Z" style="fill:#ebc0bb"></path><path d="M103.89,172.22c0,1,.56,1.74,1.15,1.76s1-.76,1-1.72-.56-1.74-1.16-1.75S103.84,171.26,103.89,172.22Z" style="fill:#263238"></path><path d="M112.82,172.19c0,.93.56,1.69,1.16,1.71s1-.73,1-1.66-.56-1.7-1.16-1.71S112.77,171.26,112.82,172.19Z" style="fill:#263238"></path><path d="M102,168.88a.42.42,0,0,0,.32-.1,3.3,3.3,0,0,1,3-.84.4.4,0,0,0,.52-.3.48.48,0,0,0-.33-.56,4.1,4.1,0,0,0-3.78,1,.47.47,0,0,0,.29.79Z" style="fill:#263238"></path><path d="M115.82,167.65a.34.34,0,0,0,.21-.2.49.49,0,0,0-.22-.58,3.72,3.72,0,0,0-3.67-.24.4.4,0,0,0-.1.57.42.42,0,0,0,.56.18,3,3,0,0,1,2.91.23A.39.39,0,0,0,115.82,167.65Z" style="fill:#263238"></path><path d="M115.82,167.65a.34.34,0,0,0,.21-.2.49.49,0,0,0-.22-.58,3.72,3.72,0,0,0-3.67-.24.4.4,0,0,0-.1.57.42.42,0,0,0,.56.18,3,3,0,0,1,2.91.23A.39.39,0,0,0,115.82,167.65Z" style="fill:#fff;opacity:0.7000000000000001"></path><path d="M110.39,171.75a31,31,0,0,0,3,5.5.7.7,0,0,1-.32,1.07,4.51,4.51,0,0,1-2.43,0Z" style="fill:#fe8a7b"></path><path d="M104.54,170.55l2.08-.5S105.48,171.6,104.54,170.55Z" style="fill:#263238"></path><path d="M113.6,170.55l2.08-.49S114.54,171.61,113.6,170.55Z" style="fill:#263238"></path><path d="M108.76,180.18a27.45,27.45,0,0,0-1.59,3.44l-.66-.14c-3-.63-4.12-1.9-4.52-3.12a3.94,3.94,0,0,1-.1-1.84,4.11,4.11,0,0,1,.3-1c1.38,1.29,4.09,2.08,5.56,2.45C108.37,180.11,108.76,180.18,108.76,180.18Z"></path><path d="M107.75,180l-.49,1c-2.79-.6-4.67-1.39-5.37-2.43a4.11,4.11,0,0,1,.3-1C103.57,178.79,106.28,179.54,107.75,180Z" style="fill:#fff"></path><path d="M106.51,183.48c-3-.63-4.12-1.9-4.52-3.12a9.59,9.59,0,0,1,3.15,1.36A3.62,3.62,0,0,1,106.51,183.48Z" style="fill:#dd5753"></path><path d="M117.79,171.52s-4.09-11.41-11.05-13.12c-.31-.07-4.63,9.87-8.85,11.81,0,0-1,6.92-2.34,7.4s-4.88-7.08-4.88-7.08-4.41-10.28,3.61-13.67,15.4-5.47,20,1.54C117.5,163.21,118.47,169.65,117.79,171.52Z" style="fill:#263238"></path><path d="M117.79,171.52s-4.09-11.41-11.05-13.12c-.31-.07-4.63,9.87-8.85,11.81,0,0-1,6.92-2.34,7.4s-4.88-7.08-4.88-7.08-4.41-10.28,3.61-13.67,15.4-5.47,20,1.54C117.5,163.21,118.47,169.65,117.79,171.52Z" style="fill:#fff;opacity:0.7000000000000001"></path><path d="M89.67,176.65a7.3,7.3,0,0,0,4.4,3.43c2.4.6,3.64-3.26,2.82-5.66a4.82,4.82,0,0,0-5.43-3.12C89.16,171.76,88.45,174.53,89.67,176.65Z" style="fill:#ebc0bb"></path><path d="M94.48,176.42a.25.25,0,0,1-.25-.23,3.07,3.07,0,0,0-1-2.09,3.66,3.66,0,0,0-2.2-.75.22.22,0,0,1-.26-.23.23.23,0,0,1,.23-.26,4.09,4.09,0,0,1,2.56.87,3.55,3.55,0,0,1,1.2,2.42.26.26,0,0,1-.23.27Z" style="opacity:0.2"></path><path d="M117.5,163.21s-8,1.2-17.43,1.64a114.45,114.45,0,0,1-14.28,0c0-1-.15-.64.33-1.24,0,0,26.87,0,30.91-1.61C117,162,117.65,162.68,117.5,163.21Z" style="fill:#263238"></path><path d="M102,168.88a.42.42,0,0,0,.32-.1,3.3,3.3,0,0,1,3-.84.4.4,0,0,0,.52-.3.48.48,0,0,0-.33-.56,4.1,4.1,0,0,0-3.78,1,.47.47,0,0,0,.29.79Z" style="fill:#fff;opacity:0.7000000000000001"></path><circle cx="104.36" cy="171.75" r="4.76" style="fill:#3F28C0;opacity:0.30000000000000004"></circle><path d="M120.55,171.75A4.76,4.76,0,1,1,115.8,167,4.76,4.76,0,0,1,120.55,171.75Z" style="fill:#3F28C0;opacity:0.30000000000000004"></path><path d="M108.42,172.25a.27.27,0,0,1-.18-.08.25.25,0,0,1,0-.35,2.48,2.48,0,0,1,1.69-.7h0a2.51,2.51,0,0,1,1.67.65.26.26,0,0,1,0,.36.24.24,0,0,1-.35,0,2.12,2.12,0,0,0-1.37-.52,2,2,0,0,0-1.35.56A.26.26,0,0,1,108.42,172.25Z" style="fill:#263238"></path><path d="M94.94,172.86a.25.25,0,0,1-.24-.2.25.25,0,0,1,.2-.3l5.68-1.15a.24.24,0,0,1,.29.19.25.25,0,0,1-.19.3L95,172.85Z" style="fill:#263238"></path><path d="M84,199s3,30.44-5.24,35.56l-.14.83a69.58,69.58,0,0,1-7,20.95l-10,19.32s3.25,8,18.05,9.59,22.47-51.73,21.9-63.14-11-24-11-24C88.08,197.75,85.7,197.73,84,199Z" style="fill:#263238"></path><path d="M71.17,136.2,73,176.93l11,22.69-5.43,19s-13-25-16.62-37.08,2.09-48.7,2.09-48.7Z" style="fill:#ebc0bb"></path><path d="M71.79,134.6s3.93-4.89,3.6-6.2a4.66,4.66,0,0,0-1.18-2.1s1.06-10.46-.46-10.42c-.83,0-1.51,2.55-2,7.5,0,0-.15-8.6-2.7-8-.43.1.25,7.11-.07,7.65a1.85,1.85,0,0,0-2.77.34s-1.81-.1-2.3,1.29-1,7.09-.17,9.89,6.61,2,6.61,2Z" style="fill:#ebc0bb"></path><path d="M68.84,132.69a.24.24,0,0,1-.23-.14,2.91,2.91,0,0,1,.28-2.72,7.63,7.63,0,0,1,2-1.9,3.76,3.76,0,0,1-2-3,1.11,1.11,0,0,1,1.14-1.16,2.26,2.26,0,0,1,1.26.61l.24.17,1.52.92c.56.33,1.11.66,1.54.93a.26.26,0,0,1,.07.35.24.24,0,0,1-.34.07c-.42-.27-1-.6-1.53-.92s-1.11-.66-1.53-.93l-.26-.18c-.24-.18-.74-.56-.93-.52-.46,0-.63.21-.68.71-.09,1,1.11,2.35,2.09,2.7a.25.25,0,0,1,.17.22.25.25,0,0,1-.13.24,6.93,6.93,0,0,0-2.23,2,2.37,2.37,0,0,0-.25,2.24.25.25,0,0,1-.13.33A.18.18,0,0,1,68.84,132.69Z" style="opacity:0.30000000000000004"></path><path d="M64.94,128.21a1,1,0,0,1-.44-.1,1.3,1.3,0,0,1-.68-1,3.4,3.4,0,0,1,0-1.06.24.24,0,0,1,.28-.22.25.25,0,0,1,.21.28,3.42,3.42,0,0,0,0,.9.82.82,0,0,0,.4.6,1,1,0,0,0,1.07-.42,2.24,2.24,0,0,0,.49-1.26,3.13,3.13,0,0,1,0-.62.25.25,0,0,1,.22-.24.25.25,0,0,1,.27.2,2.72,2.72,0,0,1,0,.64,2.29,2.29,0,0,0,.33.85,1.4,1.4,0,0,0,1.17.63.91.91,0,0,0,.84-.82c0-.14.1-.27.26-.24a.23.23,0,0,1,.24.25,1.41,1.41,0,0,1-1.3,1.31,1.91,1.91,0,0,1-1.63-.85l-.12-.2a3,3,0,0,1-.39.67A1.69,1.69,0,0,1,64.94,128.21Z" style="opacity:0.30000000000000004"></path></g></svg>
